/* XPM */
static char *result[] = {
/* columns rows colors chars-per-pixel */
"64 64 200 2 ",
"   c #010101",
".  c #0B0404",
"X  c #030609",
"o  c #090508",
"O  c #04090D",
"+  c #0B0B0C",
"@  c #090807",
"#  c #110203",
"$  c #1C0101",
"%  c #130508",
"&  c #140E0D",
"*  c #16100F",
"=  c #040E13",
"-  c #0D0D13",
";  c #120D14",
":  c #0E1016",
">  c #0D131A",
",  c #071018",
"<  c #131213",
"1  c #181413",
"2  c #14151D",
"3  c #181B1D",
"4  c #230202",
"5  c #29060C",
"6  c #240A0F",
"7  c #26060C",
"8  c #3C0102",
"9  c #3F0508",
"0  c #240A10",
"q  c #221D1B",
"w  c #2B1B1B",
"e  c #3A1117",
"r  c #22211E",
"t  c #0E1B25",
"y  c #0E1D28",
"u  c #171720",
"i  c #121A25",
"p  c #1A1A24",
"a  c #181B27",
"s  c #231522",
"d  c #201E2C",
"f  c #371E2F",
"g  c #381D2F",
"h  c #371E30",
"j  c #1C272F",
"k  c #272421",
"l  c #2B2522",
"z  c #2D2A28",
"x  c #3A2626",
"c  c #3E2A29",
"v  c #382927",
"b  c #25293A",
"n  c #282B35",
"m  c #3F2337",
"M  c #3B2338",
"N  c #342D38",
"B  c #2E3335",
"V  c #393531",
"C  c #3B3935",
"Z  c #39352F",
"A  c #420306",
"S  c #4C0709",
"D  c #480305",
"F  c #530101",
"G  c #490C16",
"H  c #470C16",
"J  c #44121B",
"K  c #4A161E",
"L  c #6B0102",
"P  c #6E090E",
"I  c #750304",
"U  c #72050B",
"Y  c #730A0E",
"T  c #561E31",
"R  c #5F1724",
"E  c #621523",
"W  c #6E1B2A",
"Q  c #741626",
"!  c #7C1624",
"~  c #791827",
"^  c #711A2A",
"/  c #7B1928",
"(  c #492E2E",
")  c #402237",
"_  c #422339",
"`  c #442A3B",
"'  c #4D3232",
"]  c #433E3A",
"[  c #423D37",
"{  c #533636",
"}  c #553838",
"|  c #73202E",
" . c #692D38",
".. c #662C38",
"X. c #4B413C",
"o. c #444039",
"O. c #272E43",
"+. c #2C2F43",
"@. c #263145",
"#. c #2B3144",
"$. c #2E3843",
"%. c #323646",
"&. c #353D4B",
"*. c #3A3C49",
"=. c #4C3844",
"-. c #453845",
";. c #5C3A43",
":. c #513B42",
">. c #2F414E",
",. c #33414D",
"<. c #3D414C",
"1. c #3D4246",
"2. c #424043",
"3. c #4D4842",
"4. c #42444C",
"5. c #4B4A4D",
"6. c #4C434D",
"7. c #584541",
"8. c #524C4B",
"9. c #54464C",
"0. c #5A554E",
"q. c #4C4D52",
"w. c #454851",
"e. c #504F52",
"r. c #584E57",
"t. c #495154",
"y. c #475053",
"u. c #565253",
"i. c #5A5354",
"p. c #5E5A56",
"a. c #5F5C58",
"s. c #664142",
"d. c #6E4A49",
"f. c #694645",
"g. c #615C56",
"h. c #645E59",
"j. c #6B5D5B",
"k. c #625655",
"l. c #7B5251",
"z. c #745E5B",
"x. c #755759",
"c. c #60524B",
"v. c #69615A",
"b. c #75645E",
"n. c #7E6465",
"m. c #766562",
"M. c #8E0203",
"N. c #820508",
"B. c #910102",
"V. c #95090F",
"C. c #9A090E",
"Z. c #9B0406",
"A. c #8C0D11",
"S. c #940D13",
"D. c #990C13",
"F. c #89101A",
"G. c #9C131E",
"H. c #A10204",
"J. c #A90506",
"K. c #BC0001",
"L. c #BF0508",
"P. c #AC0E16",
"I. c #A70F19",
"U. c #AE0F18",
"Y. c #A40D15",
"T. c #B30D15",
"R. c #B10F19",
"E. c #B90C15",
"W. c #A5121C",
"Q. c #AC111A",
"!. c #8D1623",
"~. c #801827",
"^. c #8A1F2A",
"/. c #9F1420",
"(. c #C90506",
"). c #C30508",
"_. c #CF0608",
"`. c #C9090F",
"'. c #C10407",
"]. c #D10608",
"[. c #DE0609",
"{. c #C60B11",
"}. c #CA0A10",
"|. c #E60305",
" X c #ED0304",
".X c #E30609",
"XX c #F10304",
"oX c #865D5B",
"OX c #895A5A",
"+X c #8C5E60",
"@X c #8B6561",
"#X c #8A6A65",
"$X c #876868",
"%X c #826863",
"&X c #966564",
"*X c #996766",
"=X c #966D6A",
"-X c #966B6A",
";X c #A2706F",
":X c None",
/* pixels */
":X:X:X:X:X:X:X:X:X:X:X:X:X:X:X:X:X:X:X:X:X:X:X:X:X:X:X:X:X:X:X:X:X:X:X:X:X:X:X:X:X:X:X:X:X:X:X:X:X:X:X:X:X:X:X:X:X:X:X:X:X:X:X:X",
":X:X:X:X:X:X:X:X:X:X:X:X:X:X:X:X:X:X:X:X:X:X:X:X:X:X:X:X:X:X:X:X:X:X:X:X:X:X:X:X:X:X:X:X:X:X:X:X:X:X:X:X:X:X:X:X:X:X:X:X:X:X:X:X",
":X:X:X:X:X:X:X:X:X:X:X:X:X:X:X:X:X:X:X:X:X:X:X:X:X:X:X:X:X:X:X:X:X:X:X:X:X:X:X:X:X:X:X:X:X:X:X:X:X:X:X:X:X:X:X:X:X:X:X:X:X:X:X:X",
":X:X:X:X:X:X:X:X:X:X:X:X:X:X:X:X:X:X:X:X:X:X:X:X:X:X:X:X:X:X:X:X:X:X:X:X:X:X:X:X:X:X:X:X:X:X:X:X:X:X:X:X:X:X:X:X:X:X:X:X:X:X:X:X",
":X:X:X:X:X:X:X:X:X:X:X:X:X:X:X:X:X:X:X:X:X:X:X:X:X:X:X:X:X:X:X:X:X:X:X:X:X:X:X:X:X:X:X:X:X:X:X:X:X:X:X:X:X:X:X:X:X:X:X:X:X:X:X:X",
":X:X:X:X:X:X:X:X:X:X:X:X:X:X:X:X:X:X:X:X:X:X:X:X:X:X:X:X:X:X:X:X:X:X:X:X:X:X:X:X:X:X:X:X:X:X:X:X:X:X:X:X:X:X:X:X:X:X:X:X:X:X:X:X",
":X:X:X:X:X:X:X:X:X:X:X:X:X:X:X:X:X:X:X:X:X:X:X:X:X:X:X:X:X:X:X:X:X:X:X:X:X:X:X:X:X:X:X:X:X:X:X:X:X:X:X:X:X:X:X:X:X:X:X:X:X:X:X:X",
":X:X:X:X:X:X:X:X:X:X:X:X:X:X:X:X:X:X:X:X:X:X:X:X:X:X:X:X:X:X:X:X:X:X:X:X:X:X:X:X:X:X:X:X:X:X:X:X:X:X:X:X:X:X:X:X:X:X:X:X:X:X:X:X",
":X:X:X:X:X:X:X:X:X:X:X:X:X:X:X:X:X:X:X:X:X:X:X:X:X:X:X:X:X:X:X:X:X:X:X:X:X:X:X:X:X:X:X:X:X:X:X:X:X:X:X:X:X:X:X:X:X:X:X:X:X:X:X:X",
":X:X:X:X:X:X:X:X:X:X:X:X:X:X:X:X:X:X:X:X:X:X:X:X:X:X:X:X:X:X:X:X:X:X:X:X:X:X:X:X:X:X:X:X:X:X:X:X:X:X:X:X:X:X:X:X:X:X:X:X:X:X:X:X",
":X:X:X:X:X:X:X:X:X:X:X:X:X:X:X:X:X:X:X:X:X:X:X:X:X:X:X:X:X:X:X:X:X:X:X:X:X:X:X:X:X:X:X:X:X:X:X:X:X:X:X:X:X:X:X:X:X:X:X:X:X:X:X:X",
":X:X:X:X:X:X:X:X:X:X:X:X:X:X:X:X:X:X:X:X:X:X:X:X:X:X:X:X:X:X:X:X:X:X:X:X:X:X:X:X:X:X:X:X:X:X:X:X:X:X:X:X:X:X:X:X:X:X:X:X:X:X:X:X",
":X:X:X:X:X:X:X:X:X:X:X:X:X:X:X:X:X:X:X:X:X:X:X:X:X:X:X:X:X:X:X:X:X                                    :X:X:X:X:X:X:X:X:X:X:X:X:X",
":X:X:X:X:X:X:X:X:X:X:X:X:X:X:X:X:X:X:X:X:X:X:X:X:X:X:X:X:X:X:X:X                                        :X:X:X:X:X:X:X:X:X:X:X:X",
":X:X:X:X:X:X:X:X:X:X:X:X:X:X:X:X:X:X:X:X:X:X:X:X:X:X:X:X:X:X:X:X      . + & * & & & + & + + + @ o       :X:X:X:X:X:X:X:X:X:X:X:X",
":X:X:X:X:X:X:X:X:X:X:X:X:X:X:X:X:X:X:X:X:X:X:X:X:X:X:X:X:X:X:X        * w x ( x z l r l k k r 1 @         :X:X:X:X:X:X:X:X:X:X:X",
":X:X:X:X:X:X:X:X:X:X:X:X:X:X:X:X:X:X:X:X:X:X:X:X:X:X:X:X:X          o w ( s.d.f.7.X.[ [ o.[ V k 1             :X:X:X:X:X:X:X:X:X",
":X:X:X:X:X:X:X:X:X:X:X:X:X:X:X:X:X:X:X:X:X:X:X:X:X:X:X:X            1 x s.OX&X@Xz.k.0.0.0.0.3.V r +             :X:X:X:X:X:X:X:X",
":X:X:X:X:X:X:X:X:X:X:X:X:X:X:X:X:X:X:X:X:X:X:X:X:X:X:X:X        . * w { l.*X;X=X%Xj.g.p.p.p.8.[ z 1 + @         :X:X:X:X:X:X:X:X",
":X:X:X:X:X:X:X:X:X:X:X:X:X:X:X:X:X:X:X:X:X:X:X:X:X:X:X      . * w c } d.oX-X=X#Xz.i.e.e.t.q.5.2.V z r 1 +       :X:X:X:X:X:X:X:X",
":X:X:X:X:X:X:X:X:X:X:X:X:X                                  & w ' f.l.oX@X#X%Xj.r.4.*.*.*.*.*.2.2.o.C z 1 @     :X:X:X:X:X:X:X:X",
":X:X:X:X:X:X:X:X:X:X:X:X                        @           & x s.OX*X-X#Xb.j.i.4.%.#.O.O.O.%.<.5.8.X.Z r +     :X:X:X:X:X:X:X:X",
":X:X:X:X:X:X:X:X:X:X:X:X      . + * & & * * + + * + @ X     & x s.OX*X-X%Xb.g.t.<.&.#.O.O.#.%.<.t.u.5.C r +     :X:X:X:X:X:X:X:X",
":X:X:X:X:X:X:X:X:X:X:X        & w x ( c z l r l r r r 1 +   % w ( f.l.x.z.v.g.i.w.-.*.*.*.*.<.w.q.q.4.B q +     :X:X:X:X:X:X:X:X",
":X:X:X:X:X:X:X:X:X          . w ( s.d.f.7.X.[ ] o.[ Z r < @ @ & w ( ' X.c.g.v.g.i.u.q.5.q.e.5.w.w.*.$.n 2 @     :X:X:X:X:X:X:X:X",
":X:X:X:X:X:X:X:X            * c  .oX&X#Xz.k.0.0.0.0.3.V r +     . & r v 3.k.v.v.h.p.p.p.g.p.u.q.<.%.b a : X     :X:X:X:X:X:X:X:X",
":X:X:X:X:X:X:X:X        . & s { l.*X;X=Xn.j.a.a.p.p.0.[ z 1 + @     & r C 3.0.v.a.p.p.a.p.p.u.9.=.` g s ; .     :X:X:X:X:X:X:X:X",
":X:X:X:X:X:X:X:X    . * q ( } d.oX=X=X$Xz.r.q.q.t.t.5.-.V z r 1     X 3 B 1.y.y.t.y.q.t.t.q.9.;. .W E G 5 .     :X:X:X:X:X:X:X:X",
":X:X:X:X:X:X:X:X    % w ( f.l.+X#X#X%Xj.i.4.*.*.*.*.*.2.2.o.Z r < . X - j $.&.,.,.,.&.,.,.,.-. .^.W.D.U A $     :X:X:X:X:X:X:X:X",
":X:X:X:X:X:X:X:X    ; x s.OX*X-X#Xb.j.i.4.%.+.O.O.#.%.<.5.8.3.Z q + X - a b O.#.#.#.#.@.@.#.` | /.{.).B.F $     :X:X:X:X:X:X:X:X",
":X:X:X:X:X:X:X:X    & x s.+X=X=X#Xb.a.t.4.&.#.O.b #.%.<.e.u.5.C r + o ; s f m _ _ _ m M M _ T ~.Q.}.L.M.F $     :X:X:X:X:X:X:X:X",
":X:X:X:X:X:X:X:X    & l :.x.n.n.b.v.g.u.5.-.*.&.*.*.*.w.q.q.4.B 3 + # 5 G E Q ~ ~ Q Q Q Q Q ! !.W.W.S.P 9 $     :X:X:X:X:X:X:X:X",
":X:X:X:X:X:X:X:X    + s +.=.r.k.h.v.v.g.u.u.e.5.e.5.q.w.<.<.$.j > + $ 9 U D.T.E.E.T.T.T.T.T.I.G.!.~ E J 0 #     :X:X:X:X:X:X:X:X",
":X:X:X:X:X:X:X:X    o 2 d +.*.w.u.g.g.g.g.g.p.p.k.p.u.q.<.%.b y , @ $ F M.L.[.|..X[..X.X|..X}.I./ T g s ; o     :X:X:X:X:X:X:X:X",
":X:X:X:X:X:X:X:X    . ; s g ` =.9.i.p.p.a.p.p.p.p.p.r.9.=.-.h s - . $ D M.).[..X.X.X[..X.X[.}.I./ T g s ; o     :X:X:X:X:X:X:X:X",
":X:X:X:X:X:X:X:X    # 5 G E W ..;.6.y.y.y.q.t.y.t.q.9.;. .W E H 7 . $ 9 P S.U.E.T.T.P.T.T.P.I./.!.~ R J 0 .     :X:X:X:X:X:X:X:X",
":X:X:X:X:X:X:X:X    $ 9 U D.G.^...-.&.>.>.&.,.,.>.,.-. .^.W.D.U 9 $ . 6 J R W ^ ^ ^ W W W ^ ~ !./.I.D.P A %     :X:X:X:X:X:X:X:X",
":X:X:X:X:X:X:X:X    $ F M.L.`.W.^ ` #.@.@.#.#.@.@.#.` | W.{.L.B.F 4 o ; s h _ _ _ ) ) m m ) T ~.U.{.L.B.F 4     :X:X:X:X:X:X:X:X",
":X:X:X:X:X:X:X:X    $ F M.).}.W.~.T m M M m m M m ) T ~.U.}.L.B.F $ o ; s h m _ _ ) m M M ) T ! I.).K.M.F $     :X:X:X:X:X:X:X:X",
":X:X:X:X:X:X:X:X    $ A P D.I./.!.! Q ^ Q Q Q Q Q Q ~.!.G.I.D.P 9 $ . 6 J R W ^ ^ ^ W W W W ! F.C.H.B.L 8 $     X :X:X:X:X:X:X:X",
":X:X:X:X:X:X:X:X    . 7 J E ~ !.W.P.T.T.T.T.T.T.T.T.U.G.!.~ E J & # $ 9 P S.Q.R.R.Q.R.R.R.U.Y.V.N.L F 8 4 .   X = :X:X:X:X:X:X:X",
":X:X:X:X:X:X:X:X    o ; s g T / I.}.[.|.|..X[.|..X[.`.I.! T g p ; o $ D M.'.[.|..X.X.X.X.X[.).Z.L 8 4 #       X - 2 :X:X:X:X:X:X",
":X:X:X:X:X:X:X:X    o ; s h T / W.{.[..X.X[.[..X.X[.`.W./ T h d - . $ F B.(.|.XXXX|.|. XXX|.(.B.F $         X + - 2 p :X:X:X:X:X",
":X:X:X:X:X:X:X:X    . 0 J R / !./.I.U.T.T.T.P.T.T.T.I.G.!./ E e 0 . $ A I J.(._.].(.(.].].(.J.I 8 #       X + - 2 2 p :X:X:X:X:X",
":X:X:X:X:X:X:X:X    $ 9 P D.I.W.!./ ^ W W ^ ^ W W W ! !.W.W.D.P 9 # . 4 S Y A.S.S.A.A.S.S.A.Y S 4 .     X + - 2 2 p p :X:X:X:X:X",
":X:X:X:X:X:X:X:X    $ F M.L.{.I./ T ) M M g _ M M ) T ! W.{.L.B.F $ . o 6 e K K K K K K K K e 0 %     X = < u u p p p :X:X:X:X:X",
":X:X:X:X:X:X:X:X    $ F M.K.).P.~.T ) M M ) _ M M ) T ~.U.).K.B.F $   X = 2 a p p p p p p p 3 < O . X + < 2 s a p p :X:X:X:X:X:X",
":X:X:X:X:X:X:XX     $ 8 L B.H.C.F.! W W W W W W W W ! F.C.H.B.L A $   X = > y y y y i y y t > > - O + - 2 p a a p :X:X:X:X:X:X:X",
":X:X:X:X:X:X:XO X   . 4 8 F L N.V.Y.U.R.R.U.Q.Q.R.U.Y.V.N.L F 8 4 .   X , > i a i i i i i i i > : : : 2 u p p p :X:X:X:X:X:X:X:X",
":X:X:X:X:X:X2 - @     . . $ 8 L Z.).[.|..X.X.X.X.X.X).Z.L 8 4 . .     X : 2 a p a a a p a a p p u 2 2 2 u p p :X:X:X:X:X:X:X:X:X",
":X:X:X:X:Xp 2 : +           4 F B.(.|.XX X|. XXXXX|.(.B.F 4         o O : 2 p a a p p p p p p p p p p p p p :X:X:X:X:X:X:X:X:X:X",
":X:X:X:X:Xp u 2 - - O       . 8 I J.(.]._.(.(.].].(.J.I 8 .     X   + - 2 2 p a a :X:X:X:X:X:X:X:X:X:X:X:X:X:X:X:X:X:X:X:X:X:X:X",
":X:X:X:X:Xp p 2 2 - = X     . 4 S Y A.S.S.A.A.S.S.A.Y S 4 .     X - - 2 3 u p p :X:X:X:X:X:X:X:X:X:X:X:X:X:X:X:X:X:X:X:X:X:X:X:X",
":X:X:X:X:Xp p p u 2 ; - X   . % 0 e K K K K K K K K e 0 %     X = < 2 u p p p :X:X:X:X:X:X:X:X:X:X:X:X:X:X:X:X:X:X:X:X:X:X:X:X:X",
":X:X:X:X:X:Xp p p p 2 ; O     + : 2 p p a p p p p p 3 < + o o o ; 2 p p p p :X:X:X:X:X:X:X:X:X:X:X:X:X:X:X:X:X:X:X:X:X:X:X:X:X:X",
":X:X:X:X:X:X:Xp a a u 2 - - + = > > i y y i t y y t > > - O O - 2 p p a p :X:X:X:X:X:X:X:X:X:X:X:X:X:X:X:X:X:X:X:X:X:X:X:X:X:X:X",
":X:X:X:X:X:X:X:Xs d p 2 2 < 2 - > i i i y i i i y i t 2 > < - 2 2 p p p :X:X:X:X:X:X:X:X:X:X:X:X:X:X:X:X:X:X:X:X:X:X:X:X:X:X:X:X",
":X:X:X:X:X:X:X:X:Xp p 3 2 2 2 u u p p a a p a p p p u u u 2 2 p u p p :X:X:X:X:X:X:X:X:X:X:X:X:X:X:X:X:X:X:X:X:X:X:X:X:X:X:X:X:X",
":X:X:X:X:X:X:X:X:X:Xa a p p p p p p p p p p p p p p p p p p p p p p :X:X:X:X:X:X:X:X:X:X:X:X:X:X:X:X:X:X:X:X:X:X:X:X:X:X:X:X:X:X",
":X:X:X:X:X:X:X:X:X:X:X:X:X:X:X:X:X:X:X:X:X:X:X:X:X:X:X:X:X:X:X:X:X:X:X:X:X:X:X:X:X:X:X:X:X:X:X:X:X:X:X:X:X:X:X:X:X:X:X:X:X:X:X:X",
":X:X:X:X:X:X:X:X:X:X:X:X:X:X:X:X:X:X:X:X:X:X:X:X:X:X:X:X:X:X:X:X:X:X:X:X:X:X:X:X:X:X:X:X:X:X:X:X:X:X:X:X:X:X:X:X:X:X:X:X:X:X:X:X",
":X:X:X:X:X:X:X:X:X:X:X:X:X:X:X:X:X:X:X:X:X:X:X:X:X:X:X:X:X:X:X:X:X:X:X:X:X:X:X:X:X:X:X:X:X:X:X:X:X:X:X:X:X:X:X:X:X:X:X:X:X:X:X:X",
":X:X:X:X:X:X:X:X:X:X:X:X:X:X:X:X:X:X:X:X:X:X:X:X:X:X:X:X:X:X:X:X:X:X:X:X:X:X:X:X:X:X:X:X:X:X:X:X:X:X:X:X:X:X:X:X:X:X:X:X:X:X:X:X",
":X:X:X:X:X:X:X:X:X:X:X:X:X:X:X:X:X:X:X:X:X:X:X:X:X:X:X:X:X:X:X:X:X:X:X:X:X:X:X:X:X:X:X:X:X:X:X:X:X:X:X:X:X:X:X:X:X:X:X:X:X:X:X:X"
};
