/* XPM */
static char *result[] = {
/* columns rows colors chars-per-pixel */
"64 64 69 1 ",
"  c #06226D",
". c #07236D",
"X c #07246D",
"o c #08276C",
"O c #08286C",
"+ c #092A6C",
"@ c #092B6C",
"# c #0A2B6C",
"$ c #0C316B",
"% c #0C326A",
"& c #0C336A",
"* c #0D336A",
"= c #0C326B",
"- c #0D346A",
"; c #0E366A",
": c #0E376A",
"> c #0F3A69",
", c #0E386A",
"< c #103C69",
"1 c #103D69",
"2 c #113D69",
"3 c #113F68",
"4 c #113E69",
"5 c #113F69",
"6 c #144667",
"7 c #144767",
"8 c #144867",
"9 c #154867",
"0 c #154967",
"q c #154A67",
"w c #164B67",
"e c #164D66",
"r c #174D66",
"t c #174E66",
"y c #174F66",
"u c #114068",
"i c #124168",
"p c #124268",
"a c #134368",
"s c #134468",
"d c #195365",
"f c #185266",
"g c #195266",
"h c #195366",
"j c #195465",
"k c #195565",
"l c #1A5565",
"z c #1B5964",
"x c #1B5965",
"c c #1B5A64",
"v c #1C5A64",
"b c #1C5B64",
"n c #1C5C64",
"m c #1D5D64",
"M c #1D5E64",
"N c #1D5F64",
"B c #1E5F64",
"V c #1E6063",
"C c #1E6163",
"Z c #1F6263",
"A c #1F6363",
"S c #1F6463",
"D c #1E6064",
"F c #206463",
"G c #206563",
"H c #206662",
"J c #206762",
"K c #206663",
"L c #46D500",
/* pixels */
"AAAAAASFGKKGFSAAAAAAAAAAAAAAAAAAAAAAAAAAAAAAAAAAAAAAAAAAAAAAAAAA",
"AAAAAAAAAAAAAAAAAAAAAAAAAAAAAAAAAAAAAAAAAAAAAAAAAAAAAAAAAAAAAAAA",
"AAAASAZDmbbmBZAAAAAAAAAAAAAAAAAAAAAAAAAAAAAAAAAAAAAAAAAAAAAAAAAA",
"AAASGSCvdttgzDASSAAAAAAAAAAAAAAAAAAAAAAAAAAAAAAAAAAAAAAAAAAAAAAA",
"AASGKGNj8557gmAFSAAAAAAAAAAAAAAAAAAAAAAAAAAAAAAAAAAAAAAAAAAAAAAA",
"AAASGZbr4**4rbAGFAAAAAAAAAAAAAAAAAAAAAAAAAAAAAAAAAAAAAAAAAAAAAAA",
"SAZCNbd7>=&LLLLLLLLLLLLLLLLLLLLLLLLLLLLLLLLLLLLLLLLLLLLLLLLLAAAA",
"FADvjr7i<>2LLLLLLLLLLLLLLLLLLLLLLLLLLLLLLLLLLLLLLLLLLLLLLLLLAAAA",
"GAmd84><i7eLLLLLLLLLLLLLLLLLLLLLLLLLLLLLLLLLLLLLLLLLLLLLLLLLAAAA",
"KAbt5*=>7dbLLLLLLLLLLLLLLLLLLLLLLLLLLLLLLLLLLLLLLLLLLLLLLLLLAAAA",
"KAbt5*&2ebZLLLLLLLLLLLLLLLLLLLLLLLLLLLLLLLLLLLLLLLLLLLLLLLLLAAAA",
"GAmg7447dNGLLLLLLLLLLLLLLLLLLLLLLLLLLLLLLLLLLLLLLLLLLLLLLLLLSAAA",
"FABzgrrhvCFLLLLLLLLLLLLLLLLLLLLLLLLLLLLLLLLLLLLLLLLLLLLLLLLLSAAA",
"SAZDmbbmDZALLLLLLLLLLLLLLLLLLLLLLLLLLLLLLLLLLLLLLLLLLLLLLLLLFAAA",
"AAAAAAAAAAALLLLLLLLLLLLLLLLLLLLLLLLLLLLLLLLLLLLLLLLLLLLLLLLLGAAA",
"AAASFGGGSAALLLLLLLLLLAASSFFSSAAAAAAAAAAAAAASGAmj91-@X o;0cAGGAAA",
"AAASSFFSSAALLLLLLLLLLAASGGGGSAAAAAAAAAAAAAASSAVbjea:@XO;0cAGGAAA",
"AAAAAAAAAAALLLLLLLLLLAAAAAAAAAAAAAAAAAAAAAAAAAZCBbga-+#,qvAGGAAA",
"AAAAAAAAAAALLLLLLLLLLAZVmnbmDZAAAAAAAAAAAAAAAAAFGZbe1&&2rbAGFAAA",
"AAAAAAAAAAALLLLLLLLLLFCbjyydcDASSAAAAAAAAAAAAASGKGBj9uu7dmAFSAAA",
"AAAAAAAAAAALLLLLLLLLLGBj9uu7dmAFSAAAAAAAAAAAAAAFGFCbjyydcDASSAAA",
"AAAAAAAAAAALLLLLLLLLLZbe1&&2rbAGFAAAAAAAAAAAAAAASAZVmnbmDZAAAAAA",
"AAAAAAAAAAALLLLLLLLLLbgs-+#,qvAGGAAAAAAAAAALLLLLLLLLLLLLLLLLLAAA",
"AAAAAAAAAAALLLLLLLLLLLLLLLLLLLLLLLLLLLLLLLLLLLLLLLLLLLLLLLLLLAAA",
"AAAAAAAAAAALLLLLLLLLLLLLLLLLLLLLLLLLLLLLLLLLLLLLLLLLLLLLLLLLLAAA",
"AAAAAAAAAAALLLLLLLLLLLLLLLLLLLLLLLLLLLLLLLLLLLLLLLLLLLLLLLLLLAAA",
"AAAAAAAAAAALLLLLLLLLLLLLLLLLLLLLLLLLLLLLLLLLLLLLLLLLLLLLLLLLLAAA",
"AAAAAAAAAAALLLLLLLLLLLLLLLLLLLLLLLLLLLLLLLLLLLLLLLLLLLLLLLLLLAAA",
"AAAAAAAAAASLLLLLLLLLLLLLLLLLLLLLLLLLLLLLLLLLLLLLLLLLLLLLLLLLLAAA",
"AAAAAAAAAAALLLLLLLLLLLLLLLLLLLLLLLLLLLLLLLLLLLLLLLLLLLLLLLLLLAAA",
"AAAAAAAAAAZLLLLLLLLLLLLLLLLLLLLLLLLLLLLLLLLLLLLLLLLLLLLLLLLLLAAA",
"AAAAAAASSADLLLLLLLLLLLLLLLLLLLLLLLLLLLLLLLLLLLLLLLLSSAAAAAAAAAAA",
"AAAAAAASGAmLLLLLLLLLqwykbCFGFAAAAAAAAASGKGNd7446fmAGSAAAAAAAAAAA",
"AAAAAAAFGAbLLLLLLLLLbvbMVZASAAAAAAAAAAAFGZbe2&*4rbAGFAAAAAAAAAAA",
"AAAAAAAFGAbLLLLLLLLLSAAAAAAAAAAAAAAAAAZCNbd7>=&4rbAGFAAAAAAAAAAA",
"AAAAAAASGAmLLLLLLLLLJGGFSAAAAAAAAAASSADvde7i<>27hmAGSAAAAAAAAAAA",
"AAAAAAASSABLLLLLLLLLGGFSSAAAAAAAAAASGAmh72><i7edvDASSAAAAAAAAAAA",
"AAAAAAAAAAZLLLLLLLLLSAAAAAAAAAAAAAAFGAbr4&=>7dbNCZAAAAAAAAAAAAAA",
"AAAAAAAAAAALLLLLLLLLAAAAAAAAAAAAAAAFGAbr4*&2ebZGFAAAAAAAAAAAAAAA",
"AAAAAAAAAAALLLLLLLLLAAAAAAAAAAAAAAASGAmf6447dNGKGSAAAAAAAAAAAAAA",
"AAAAAAAAAAALLLLLLLLLAAAAAAAAAAAAAAASSABxfrrhvCFGFAAAAAAAAAAAAAAA",
"AAAAAAAAAAALLLLLLLLLAAAAAAAAAAAAAAAAAAZBmbbmDZASAAAAAAAAAAAAAAAA",
"AAAAAAAAAALLLLLLLLLLAAAAAAAAAAAAAAAAAAAAAAAAAAAAAAAAAAAAAAAAAAAA",
"AAAAAAAAAALLLLLLLLLLLLLLLLLLLLLLLLLLLLLLLLLLLLLLLLLLLLLLLLLLAAAA",
"AAAAAAAAAALLLLLLLLLLLLLLLLLLLLLLLLLLLLLLLLLLLLLLLLLLLLLLLLLLAAAA",
"AAAAAAAAAALLLLLLLLLLLLLLLLLLLLLLLLLLLLLLLLLLLLLLLLLLLLLLLLLLAAAA",
"AAAAAAAAAALLLLLLLLLLLLLLLLLLLLLLLLLLLLLLLLLLLLLLLLLLLLLLLLLLAAAA",
"AAAAAAAAAALLLLLLLLLLLLLLLLLLLLLLLLLLLLLLLLLLLLLLLLLLLLLLLLLLSAAA",
"AAAAAAAAAALLLLLLLLLLLLLLLLLLLLLLLLLLLLLLLLLLLLLLLLLLLLLLLLLLSAAA",
"AAAAAAAAAALLLLLLLLLLLLLLLLLLLLLLLLLLLLLLLLLLLLLLLLLLLLLLLLLLFAAA",
"AAAAAAAAAALLLLLLLLLLLLLLLLLLLLLLLLLLLLLLLLLLLLLLLLLLLLLLLLLLGAAA",
"AAAAAAAAAAASSLLLLLLLLLLLLLLLLLLLLLLLLLLLLLLLLLLLLLLLLLLLLLLLGAAA",
"AAAAAAAAAAASGAmj91-@X o;0cAGGAAAAAAAAAAAAASGKGBl04-@X o;0cAGGAAA",
"AAAAAAAAAAAFGAnyu&+X .@>wvAGGAAAAAAAAAAAAAAFGZbyu&+X .@>wvAGGAAA",
"AAAAAAAAAAAFGAbyu&#Oo@%3tbAGFAAAAAAAAAAAAAZCNbj9<$@OO@%3tbAGFAAA",
"AAAAAAAAAAASGAmd72,;;>30jmAFSAAAAAAAAAASSADvde7p2>,::>30jmAFSAAA",
"AAAAAAAAAAASSADcdrq00wtjvVASSAAAAAAAAAASGAmh72>1p7qqqwtjvVASSAAA",
"AAAAAAAAAAAAAAZDmbvccvbmVZAAAAAAAAAAAAAFGAbr4&=>7dcbbvbmVZAAAAAA",
"AAAAAAAAAAAAAAAAAAAAAAAAAAAAAAAAAAAAAAAFGAbr4**4rbZGSAAAAAAAAAAA",
"AAAAAAAAAAAAAAASFGGGGGGFSAAAAAAAAAAAAAASFAmg7557jNGJHGGFSAAAAAAA",
"AAAAAAAAAAAAAAASSFGGGGFSSAAAAAAAAAAAAAASSADzgttdvCGKGGFSSAAAAAAA",
"AAAAAAAAAAAAAAAAAAAAAAAAAAAAAAAAAAAAAAAAAAZBmbbmDZASSAAAAAAAAAAA",
"AAAAAAAAAAAAAAAAAAAAAAAAAAAAAAAAAAAAAAAAAAAAAAAAAAAAAAAAAAAAAAAA",
"AAAAAAAAAAAAAAAAAAAAAAAAAAAAAAAAAAAAAAAAAASFGKKGFSAAAAAAAAAAAAAA"
};
