/* XPM */
static char *result[] = {
/* columns rows colors chars-per-pixel */
"64 64 242 2 ",
"   c #030203",
".  c #0B0101",
"X  c #020906",
"o  c #03040B",
"O  c #0A030A",
"+  c #080B08",
"@  c #140101",
"#  c #1B0101",
"$  c #150A08",
"%  c #030915",
"&  c #191516",
"*  c #220301",
"=  c #210808",
"-  c #2B120C",
";  c #001621",
":  c #371F30",
">  c #3B2C2D",
",  c #3B2328",
"<  c #3D322C",
"1  c #3A2A34",
"2  c #373837",
"3  c #2C242F",
"4  c #471C1B",
"5  c #483216",
"6  c #61211F",
"7  c #401F26",
"8  c #4C2A25",
"9  c #452E2C",
"0  c #4A2C2D",
"q  c #472625",
"w  c #552B2C",
"e  c #582726",
"r  c #45342E",
"t  c #4B352B",
"y  c #51322C",
"u  c #513827",
"i  c #472C34",
"p  c #532D31",
"a  c #433232",
"s  c #4D3434",
"d  c #45393B",
"f  c #4B3B3D",
"g  c #473838",
"h  c #573839",
"j  c #652928",
"k  c #703537",
"l  c #671E18",
"z  c #3B403A",
"x  c #47413C",
"c  c #54463B",
"v  c #694A36",
"b  c #7B5838",
"n  c #71502D",
"m  c #584815",
"M  c #3A3946",
"N  c #303B50",
"B  c #482B44",
"V  c #463743",
"C  c #513642",
"Z  c #523D42",
"A  c #4A3C55",
"S  c #693C42",
"D  c #3C4346",
"F  c #3F5973",
"G  c #4A484A",
"H  c #594543",
"J  c #524A54",
"K  c #5F5354",
"L  c #504B51",
"P  c #644B4D",
"I  c #6B4C4B",
"U  c #654645",
"Y  c #724D4D",
"T  c #774548",
"R  c #69514A",
"E  c #755649",
"W  c #664C51",
"Q  c #744D51",
"!  c #695859",
"~  c #765655",
"^  c #465B71",
"/  c #795B6C",
"(  c #4C627C",
")  c #556778",
"_  c #54656A",
"`  c #796477",
"'  c #AB3F3D",
"]  c #90382E",
"[  c #864B28",
"{  c #974938",
"}  c #884D33",
"|  c #AE4F3E",
" . c #86494C",
".. c #994C46",
"X. c #9A5449",
"o. c #874E55",
"O. c #974D56",
"+. c #895757",
"@. c #9B5C5C",
"#. c #975656",
"$. c #8C564C",
"%. c #A84A47",
"&. c #B44B4B",
"*. c #A85649",
"=. c #B4534C",
"-. c #A74D55",
";. c #A45958",
":. c #B75655",
">. c #B54C51",
",. c #81635D",
"<. c #91615D",
"1. c #B0615D",
"2. c #885B68",
"3. c #955B67",
"4. c #865D76",
"5. c #A55863",
"6. c #946565",
"7. c #866975",
"8. c #8E6373",
"9. c #BC7877",
"0. c #B8716B",
"q. c #D96A5D",
"w. c #C6685E",
"e. c #E46C5C",
"r. c #EA6D5E",
"t. c #E36558",
"y. c #E5725C",
"u. c #E7725B",
"i. c #F76A58",
"p. c #CB6D65",
"a. c #DC6F69",
"s. c #DA6D63",
"d. c #C5746E",
"f. c #DB736C",
"g. c #D3736A",
"h. c #C97B77",
"j. c #D77A75",
"k. c #E36D61",
"l. c #E76D69",
"z. c #EB7365",
"x. c #E3746B",
"c. c #EC7A6D",
"v. c #E9776A",
"b. c #F2776C",
"n. c #E57C73",
"m. c #F16D68",
"M. c #AF8D55",
"N. c #BA9865",
"B. c #B19071",
"V. c #C38C51",
"C. c #D5827B",
"Z. c #C9997B",
"A. c #EA817D",
"S. c #D2A578",
"D. c #546A85",
"F. c #556C88",
"G. c #806681",
"H. c #BA7F82",
"J. c #9F949C",
"K. c #B9998A",
"L. c #B99D96",
"P. c #A79183",
"I. c #BDA38C",
"U. c #BBA599",
"Y. c #B8A5A6",
"T. c #BAA8B8",
"R. c #B3AAB4",
"E. c #C98381",
"W. c #D28583",
"Q. c #C79C88",
"!. c #C79D96",
"~. c #D09C91",
"^. c #E08884",
"/. c #CCA48B",
"(. c #C8A68A",
"). c #D3A688",
"_. c #C9A899",
"`. c #D1A797",
"'. c #D5B39A",
"]. c #E3AC96",
"[. c #C8ABA6",
"{. c #DAA3A9",
"}. c #CDB4AE",
"|. c #CAACB7",
" X c #D7AAB5",
".X c #C6B2B9",
"XX c #D7B2BC",
"oX c #D7B1AE",
"OX c #E3AAAF",
"+X c #E7B2AC",
"@X c #CD99A5",
"#X c #EBC5A6",
"$X c #F4C8AF",
"%X c #F9D0AA",
"&X c #EDCBB4",
"*X c #F3CDB5",
"=X c #F4CCB9",
"-X c #F9C9BA",
";X c #EDD0BD",
":X c #FCD3B9",
">X c #FAD5BB",
",X c #B9ADC7",
"<X c #BBB2C5",
"1X c #BCB3CD",
"2X c #BBB5D2",
"3X c #C3B3C5",
"4X c #C6B7C9",
"5X c #D4B8C7",
"6X c #C6BBD1",
"7X c #CAADC9",
"8X c #F1BCC0",
"9X c #CBC2D7",
"0X c #FEC8C9",
"qX c #E9D3CC",
"wX c #FCD3C2",
"eX c #FAD6C9",
"rX c #FCCCD3",
"tX c #FCD3D6",
"yX c #ECD5CF",
"uX c #F8E3D9",
"iX c #EEE7DF",
"pX c #FBD6E7",
"aX c #E8DEF6",
"sX c #E2DCEA",
"dX c #ECE9ED",
"fX c #FFECED",
"gX c #F9E8E8",
"hX c #F7F5EC",
"jX c #EAE6F9",
"kX c #F5EEF3",
"lX c #FAE8F8",
"zX c #EEFCFB",
"xX c #EFF2F6",
"cX c #F4F4F4",
"vX c #FDF4F4",
"bX c #F4FCF4",
"nX c #FDFBF5",
"mX c #F5F6F9",
"MX c #FDF5FB",
"NX c #F6FDFC",
"BX c #FEFEFF",
"VX c #CFC6E5",
/* pixels */
"BXBXBXBXBXBXBXBXBXBXBXBXBXBXBXBXBXNXBXNXBXNXBXNXBXNXBXBXBXBXBXBXBXBXBXMXBXBXBXBXBXBXnXnXnXNXnXnXBXBXBXBXBXBXBXBXBXBXBXBXBXBXBXBX",
"BXBXBXBXBXBXBXBXBXBXBXBXBXBXBXBXMXBXNXBXBXBXNXBXBXBXBXBXBXBXBXnXBXBXBXBXBXBXBXBXBXNXBXnXnXBXnXnXBXBXBXBXBXBXBXBXBXBXBXBXBXBXBXBX",
"BXBXBXBXBXBXBXBXBXBXBXBXBXBXBXBXBXBXBXBXBXBXBXMXBXBXBXNXBXBXBXBXBXBXBXBXBXBXBXBXBXBXBXBXNXBXNXBXBXBXBXBXBXBXBXBXBXBXBXBXBXBXBXBX",
"BXBXBXBXBXBXBXBXBXBXBXBXBXBXBXBXBXBXnXBXBXBXBXBXBXBXBXBXnXBXBXBXnXBXMXBXBXBXBXBXBXBXNXBXBXBXBXBXBXBXBXBXBXBXBXBXBXBXBXBXBXBXBXBX",
"BXBXBXBXBXBXBXBXBXBXBXBXBXBXBXBXBXmXnXMXnXBXBXBXBXBXMXBXBXBXBXNXnXBXnXBXBXBXBXNXBXBXBXBXBXBXBXBXBXBXBXBXBXBXBXBXBXBXBXBXBXBXBXBX",
"BXBXBXBXBXBXBXBXBXBXBXBXBXBXBXBXMXNXBXBXBXBXBXMXnXBXBXBXBXNXBXBXBXnXBXnXBXBXBXBXNXBXBXBXBXBXNXBXBXBXBXBXBXBXBXBXBXBXBXBXBXBXBXBX",
"BXBXBXBXBXBXBXBXBXBXBXBXBXBXBXBXNXBXBXBXBXBXBXBXBXBXBXBXBXBXNXBXnXBXBXBXnXBXBXBXBXBXBXBXBXBXBXBXBXBXBXBXBXBXBXBXBXBXBXBXBXBXBXBX",
"BXBXBXBXBXBXBXBXBXBXBXBXBXBXBXBXBXBXNXNXBXNXBXNXBXBXBXBXMXBXMXMXBXBXNXBXBXBXBXBXBXBXBXnXBXBXnXBXBXBXBXBXBXBXBXBXBXBXBXBXBXBXBXBX",
"BXBXBXBXBXBXBXBXBXBXBXBXBXBXBXBXBXBXBXmXBXmXmXBXBXBXBXBXBXBXBXMXBXMXBXBXNXBXBXBXBXBXmXBXBXhXmXnXBXBXBXBXBXBXBXBXBXBXBXBXBXBXBXBX",
"BXBXBXBXBXBXBXBXBXBXBXBXBXBXBXBXkXMXlXBXMXBXnXBXNXBXBXBXBXBXMXMXnXMXBXMXBXMXMXBXNXBXBXBXNXBXbXBXBXBXBXBXBXBXBXBXBXBXBXBXBXBXBXBX",
"BXBXBXBXBXBXBXBXBXBXBXBXBXBXBXBXBXBXMXBXnXvXnXvXr r 0 0 0 0 i i C i d , i 1 MXMXBXBXcXBXxXBXBXNXBXBXBXBXBXBXBXBXBXBXBXBXBXBXBXBX",
"BXBXBXBXBXBXBXBXBXBXBXBXBXBXBXBXNXNXBXmXnXvXgXfX8 w e e e e j e q e p p S 0 MXfXfXMXnXMXBXBXNXBXBXBXBXBXBXBXBXBXBXBXBXBXBXBXBXBX",
"BXBXBXBXBXBXBXBXBXBXBXBXBXBXBXBXzXzXNXMX> s 4 e B.h.h.h.j.j.j.j.W.W.h.H.H.9.e 8 h i MXBXdXBXNXNXBXBXBXBXBXBXBXBXBXBXBXBXBXBXBXBX",
"BXBXBXBXBXBXBXBXBXBXBXBXBXBXBXBXNXNXBXnXy y j l j.g.a.a.a.a.a.a.f.a.p.f.d.E.j e w p gXvXBXMXBXNXBXBXBXBXBXBXBXBXBXBXBXBXBXBXBXBX",
"BXBXBXBXBXBXBXBXBXBXBXBXBXBXBXBXMXMXZ 0 +.<.0.j.f.x.l.l.z.z.v.v.m.r.m.b.a.w.j.9.$.6.y c vXMXBXMXBXBXBXBXBXBXBXBXBXBXBXBXBXBXBXBX",
"BXBXBXBXBXBXBXBXBXBXBXBXBXBXBXBXMXMX, p @.;.j.f.x.k.z.k.y.r.y.k.i.i.i.t.z.n.p.C.#.6.4 h fXBXBXBXBXBXBXBXBXBXBXBXBXBXBXBXBXBXBXBX",
"BXBXBXBXBXBXBXBXBXBXBXBXBXBXBXBXnXBX2 p 5.%.n.e.r.z.r.u.u.u.z.z.m.m.e.u.y.c.e.z.:.#.p > BXBXxXBXBXBXBXBXBXBXBXBXBXBXBXBXBXBXBXBX",
"BXBXBXBXBXBXBXBXBXBXBXBXBXBXBXBXBXcXB p 9.n.s.z.b.z.k.u.u.z.k.v.l.b.z.z.y.y.t.x.g.9.p f cXmXBXBXBXBXBXBXBXBXBXBXBXBXBXBXBXBXBXBX",
"BXBXBXBXBXBXBXBXBXBXBXBXBXBXBXBXMXMX7 e h.A.k.t.t.t.z.e.u.v.s.f.x.x.s.u.u.z.z.v.j.E.4 Z vXBXMXdXBXBXBXBXBXBXBXBXBXBXBXBXBXBXBXBX",
"BXBXBXBXBXBXBXBXBXBXBXBXBXBXBXBXMXfXj k d.a.c.z.z.b.b.s.f.p.g.C.j.j.s.q.z.e.r.s.p.h.j w vXnXmXBXBXBXBXBXBXBXBXBXBXBXBXBXBXBXBXBX",
"BXBXBXBXBXBXBXBXBXBXBXBXBXBXBXnX. = 4 j p.n.s.z.q.v.q.p.^.0.C.d.h.C.g.f.v.r.z.c.n.C.j 4 @ O BXBXBXBXBXBXBXBXBXBXBXBXBXBXBXBXBXBX",
"BXBXBXBXBXBXBXBXBXBXBXBXBXBXBXBXV h 6.X.:.=.s.x.v.j.h.W.0XwXeX0XtX0XW.j.s.e.k.q.| %.#.@.h Z cXMXBXBXBXBXBXBXBXBXBXBXBXBXBXBXBXBX",
"BXBXBXBXBXBXBXBXBXBXBXBXBXBXBXBX3 i $.*.*.&.x.x.j.0.h.H.tXgXrXtXtXrXH.j.p.x.c.c.:.%.X.@., d MXBXBXBXBXBXBXBXBXBXBXBXBXBXBXBXBXBX",
"BXBXBXBXBXBXBXBXBXBXBXBXBXBXBXBXO # <.X.*.:.' >.&.;.oX XlXrX8.o.tXgX X{.1.&.&.>.=.*.;.+.#   BXBXBXBXBXBXBXBXBXBXBXBXBXBXBXBXBXBX",
"BXBXBXBXBXBXBXBXBXcXBXBXnXBXBXBXO # @.X.=.%.:.>.-.;.{.5XlXpX8.O.pXpX5XoX@.1.>.>.:.%.;.+.# $ MXBXBXBXBXBXBXBXBXBXBXBXBXBXBXBXBXBX",
"BXBXBXBXBXBXBXBXBXBXBXmXBXdXBXcX  @ +.X.-.&.:.-.5.3.5XT.4.G.2.3.4.7..X5XQ o.-.:.-.;.@.<.# . BXBXBXBXBXBXBXBXBXBXBXBXBXBXBXBXBXBX",
"BXBXBXBXBXBXBXBXmXBXBXBXBXBXBXBX+ $ ~ #.;.-.5.O.3.2.5X6XG./ 8.4.` ` 4X4X7.3.3.5.;.X.<.T @ . cXBXBXBXBXBXBXBXBXBXBXBXBXBXBXBXBXBX",
"BXBXBXBXBXBXBXBXBXBXnXcXBXBXdXMX. . y e O.5.OXXXXX7X4X7X7X7X7X5X4X3X6X<X.X7X{.OX;.;.j 8 @   cXMXBXBXBXBXBXBXBXBXBXBXBXBXBXBXBXBX",
"BXBXBXBXBXBXBXBXBXBXBXBXMXmXG 2 . . i 8 2.3. X5X7X6X1X1X9X9X,X4X<X6X,X2X9X6X5X X3. .e 8 @ . Z > BXBXBXBXBXBXBXBXBXBXBXBXBXBXBXBX",
"BXBXBXBXBXBXBXBXBXmXMXnXBXBX> 2 @ * q s 2.7.|.T.3X,X2X6X<X<X6X6X9X2X<X9XR.2X6X|.2.6.h 8 @ . , Z BXBXBXBXBXBXBXBXBXBXBXBXBXBXBXBX",
"BXBXBXBXBXBXBXBXmXBXBXBXcXcX. O !.K.~ K a 1 C V 9X6XaXlXdXjXxXaXjXsXjXmX2X,XA i 0 q I ,.L.L.$ @ BXBXBXBXBXBXBXBXBXBXBXBXBXBXBXBX",
"BXBXBXBXBXBXBXBXBXBXcXnXBXcX$   ~.!.W / 1 C B V 2X2XaXlXdXjXjXaXjXjXjXaX2XVX: C f a R Y !.L.@ . BXBXBXBXBXBXBXBXBXBXBXBXBXBXBXBX",
"BXBXBXBXBXBXBXBXBXmXBXBXcXBX  + Z.~.8 h U ~ Y Y E ~ R ! a i C B B 1 K ! K W / W R ! 8 e (._..   BXBXBXBXBXBXBXBXBXBXBXBXBXBXBXBX",
"BXBXBXBXBXBXBXBXBXMXvXBXBXvX&   K.[.9 q ~ T U ~ R R ! H 0 0 , C i C K ! ! ! P ! v / q 8 U.P.. + BXBXBXBXBXBXBXBXBXBXBXBXBXBXBXBX",
"BXBXBXBXBXBXBXBXBXBXBXMXBXBXdXBX. . > s I.`.+.Y Y.Y.i h (.(.`._._.L.V V J.Y.I E _.K.9 h @ = nXcXBXBXBXBXBXBXBXBXBXBXBXBXBXBXBXBX",
"BXBXBXBXBXBXBXBXBXBXnXMXBXmXBXBXX X 2 u /.Q.E U Y.Y.9 8 Q.).).(./.[.> M R.Y.E v _.U.f d .   nXBXBXBXBXBXBXBXBXBXBXBXBXBXBXBXBXBX",
"BXnXBXBXBXBXBXBXBXBXcXBXBXBXBXxXNXBXO # Z.).(.[.uXiX- # $X%X+X:X#XeX@ . dXiX(.(.B.}.+   mXnXnXnXBXBXBXBXBXBXBXBXBXBXBXBXBXBXBXBX",
"BXBXBXBXBXBXBXBXmXBXmXBXmXmXBXmXcXBXO @ I.'.(.I.uXiX. # &X-X:X:X>X>X* $ tXuX(._.'.Y.$   NXBXNXBXBXBXBXBXBXBXBXBXBXBXBXBXBXBXBXBX",
"BXBXBXBXBXBXBXBXBXNXNXmXBXNXmXBXnXBXvXnX@ # (.(.eX;XeXeX=XwX>X%X*X&X&X;XeX*X'.B.* @ vXnXnXNXMXBXBXBXBXBXBXBXBXBXBXBXBXBXBXBXBXBX",
"BXBXBXBXBXBXBXBXMXBXBXbXBXbXBXBXBXnXmXvX$ # _.(.*X*X*X>X*XeX*X>X-X=X>X*X>XeXB.'.# # hXnXnXmXBXNXBXBXBXBXBXBXBXBXBXBXBXBXBXBXBXBX",
"BXBXBXBXBXBXBXBXNXBXNXNXmXBXnXBXBXmX+ +   @ E b ).Q.:X*X:X-X).S.:X>XwX&X(.'.m b + + nXnXnXNXBXmXBXBXBXBXBXBXBXBXBXBXBXBXBXBXBXBX",
"NXBXBXBXBXBXBXBXBXNXbXBXBXMXBXcXnXBX  X   $ b b Z.].+XwXwX*XS.S.%X#X;XeX(.(.} b $ + nXhXhXBXmXNXBXBXBXBXBXBXBXBXBXBXBXBXBXBXBXBX",
"BXBXBXBXBXBXNXBXbXBXBXBXNXkXBXvXc R G M 2 5 M.M.} $.4 8 _.(.Z.).(._.5 s b b M.M.. . nXnXbXNXNXNXBXBXBXBXBXBXBXBXBXBXBXBXBXBXBXBX",
"BXBXBXBXBXBXBXBXBXBXmXmXnXnXfXvXv c d G < n M.V.{ o.w p _._._.B.I.I.y u c b M.B.$ . nXbXbXbXbXNXBXBXBXBXBXBXBXBXBXBXBXBXBXBXBXBX",
"BXBXBXBXBXBXBXBXNXcXnXnXBXfX! H /.'.9 V x 5 M.V.[ O.@X}.< > a 0 u 9 [.+XM.N.m 5 r g g 2 hXhXnXBXBXBXBXBXBXBXBXBXBXBXBXBXBXBXBXBX",
"BXBXBXBXNXBXBXBXBXBXBXnXvXvXH P ).Q.8 g r 5 V.M.%.O.OXoXa M 1 B a s [.].M.N.5 t h c < t hXhXBXMXBXBXBXBXBXBXBXBXBXBXBXBXBXBXBXBX",
"BXBXBXBXBXBXNXBXBXNXBXnXvXvXZ Q Q.`.`.[.. @ $ - *.] ..+.[.T.J M T.|.#.{ n n 5 c L.[.v R hXhXhXnXBXBXBXBXBXBXBXBXBXBXBXBXBXBXBXBX",
"BXBXBXBXBXBXBXBXBXBXcXvXvXvXW P /.~._.I.@ + @ * } | ] #.}.T.M A 3X X .{ [ } m s U._.v U hXnXhXBXBXBXBXBXBXBXBXBXBXBXBXBXBXBXBXBX",
"BXBXBXBXBXBXBXBXBXBXBXBXBXBXnXMXv R U H BXmX+ @ v ] #.T [.3X1 A |. Xo.o.T T # @ qX0X0X0XS Y nXbXBXBXBXBXBXBXBXBXBXBXBXBXBXBXBXBX",
"BXBXBXBXBXBXBXBXBXBXBXBXBXBXBXBXH ~ H ! gXmX. @ Y S T ,.|.Y.L M |. X/ o.T h = . qXqXrX8Xo.c nXbXBXBXBXBXBXBXBXBXBXBXBXBXBXBXBXBX",
"BXBXBXBXBXBXBXBXBXBXBXBXBXBXBXMXvXfXfXMX$   J 2 . O $ @   O . O . @ # = p H . . yXqX8XrXT I nXnXBXBXBXBXBXBXBXBXBXBXBXBXBXBXBXBX",
"BXBXBXBXBXBXBXBXBXBXBXBXBXBXBXBXnXnXMXBXX   M N % % % % o X       + . . H c . . yXqXrXrXh U vXnXBXBXBXBXBXBXBXBXBXBXBXBXBXBXBXBX",
"BXBXBXBXBXBXBXBXBXBXBXBXBXBXBXBXMXBXMXBX  % ^ D.( D.D.D.) _ z z z 2 z D .   nXnXH H P Y fXfXBXBXBXBXBXBXBXBXBXBXBXBXBXBXBXBXBXBX",
"BXBXBXBXBXBXBXBXBXBXBXBXBXBXBXBXBXBXcXMXo % ) D.F.^ ^ ^ _ _ z x G D G 2 X   nXnX! x ! ! gXvXMXnXBXBXBXBXBXBXBXBXBXBXBXBXBXBXBXBX",
"BXBXBXBXBXBXBXBXBXBXBXBXBXBXBXBXNXdXBXMX  % N N D.D.F.( % X   . X X X X NXNXnXBXvXvXvXvXnXMXmXBXBXBXBXBXBXBXBXBXBXBXBXBXBXBXBXBX",
"BXBXBXBXBXBXBXBXBXBXBXBXBXBXBXBXNXNXxXBXO o G N D.^ ( ^ % X X     X + X bXNXBXnXnXMXBXnXBXBXBXmXBXBXBXBXBXBXBXBXBXBXBXBXBXBXBXBX",
"BXBXBXBXBXBXBXBXBXBXBXBXBXBXBXBXzXzXNXBXBXMXX o M V M D D 2 BXmXMXBXMXNXNXNXBXBXnXBXBXNXNXNXBXNXBXBXBXBXBXBXBXBXBXBXBXBXBXBXBXBX",
"BXBXBXBXBXBXBXBXBXBXBXBXBXBXBXBXzXmXBXBXBXNX  . Z C H > G D xXBXMXBXBXNXNXBXBXMXBXMXBXNXNXNXBXBXBXBXBXBXBXBXBXBXBXBXBXBXBXBXBXBX",
"BXBXBXBXBXBXBXBXBXBXBXBXBXBXBXBXbXnXvXMXmXNX  # Q  .o.~ . O MXMXMXMXBXBXBXBXBXMXBXBXNXNXNXNXBXBXBXBXBXBXBXBXBXBXBXBXBXBXBXBXBXBX",
"BXBXBXBXBXBXBXBXBXBXBXBXBXBXBXBXBXnXkXvXBXcX+ # +.+.+.Y $ . kXMXMXBXBXBXBXBXBXMXMXBXBXNXNXBXBXBXBXBXBXBXBXBXBXBXBXBXBXBXBXBXBXBX",
"BXBXBXBXBXBXBXBXBXBXBXBXBXBXBXBXzXbXBXBXnXBXhXvX# * * @ BXnXBXMXBXMXBXBXBXBXMXBXBXBXNXNXNXBXBXBXBXBXBXBXBXBXBXBXBXBXBXBXBXBXBXBX",
"BXBXBXBXBXBXBXBXBXBXBXBXBXBXBXBXNXNXNXNXNXcXmXcXO . $ . hXBXcXBXBXBXBXBXBXBXMXBXBXBXBXNXBXMXBXMXBXBXBXBXBXBXBXBXBXBXBXBXBXBXBXBX",
"BXBXBXBXBXBXBXBXBXBXBXBXBXBXBXBXNXBXBXmXBXNXBXBXMXMXkXBXNXnXBXcXBXBXBXBXBXBXBXBXBXNXNXNXNXBXBXBXBXBXBXBXBXBXBXBXBXBXBXBXBXBXBXBX",
"BXBXBXBXBXBXBXBXBXBXBXBXBXBXBXBXBXMXnXBXbXBXzXNXBXMXMXMXBXnXnXNXBXNXBXBXBXBXBXBXBXBXNXBXNXBXBXBXBXBXBXBXBXBXBXBXBXBXBXBXBXBXBXBX"
};
