/* XPM */
static char *result[] = {
/* columns rows colors chars-per-pixel */
"64 64 240 2 ",
"   c #030202",
".  c #0B0102",
"X  c #0B0904",
"o  c #04030B",
"O  c #0B030B",
"+  c #000A0E",
"@  c #0E0B0D",
"#  c #130101",
"$  c #1B0101",
"%  c #15070A",
"&  c #0B0412",
"*  c #020714",
"=  c #180912",
"-  c #0D1110",
";  c #210203",
":  c #250406",
">  c #351C18",
",  c #3C3014",
"<  c #392828",
"1  c #383428",
"2  c #392E35",
"3  c #3C3434",
"4  c #383639",
"5  c #501B1D",
"6  c #45271B",
"7  c #582A1C",
"8  c #4C361C",
"9  c #401F34",
"0  c #432B2C",
"q  c #4B2B2C",
"w  c #4A2825",
"e  c #542C2C",
"r  c #5A2927",
"t  c #42312B",
"y  c #433A2B",
"u  c #493829",
"i  c #523127",
"p  c #462D34",
"a  c #582E32",
"s  c #4B3233",
"d  c #43323B",
"f  c #4C353C",
"g  c #483735",
"h  c #583536",
"j  c #643835",
"k  c #6D2E2D",
"l  c #3C4206",
"z  c #504A15",
"x  c #434437",
"c  c #544236",
"v  c #4D4326",
"b  c #6A493A",
"n  c #764839",
"m  c #7A553B",
"M  c #68533B",
"N  c #373448",
"B  c #473A44",
"V  c #563845",
"C  c #513751",
"Z  c #643E41",
"A  c #783640",
"S  c #354950",
"D  c #3C696F",
"F  c #4B4548",
"G  c #544444",
"H  c #5B4949",
"J  c #58585B",
"K  c #4D4D58",
"L  c #6A4444",
"P  c #634B4D",
"I  c #6B4B47",
"U  c #744848",
"Y  c #6F5644",
"T  c #745846",
"R  c #674D53",
"E  c #64535D",
"W  c #6A5655",
"Q  c #785558",
"!  c #754E55",
"~  c #5D5A63",
"^  c #665B66",
"/  c #765963",
"(  c #4C6766",
")  c #5B6968",
"_  c #466D75",
"`  c #72636A",
"'  c #72604C",
"]  c #923A3C",
"[  c #A93F3A",
"{  c #8F4A1F",
"}  c #9A493B",
"|  c #8A5439",
" . c #8D4E2F",
".. c #B9473D",
"X. c #A0483A",
"o. c #884A48",
"O. c #984948",
"+. c #8C4A55",
"@. c #84525B",
"#. c #8B575A",
"$. c #935454",
"%. c #9A565A",
"&. c #94504F",
"*. c #A94947",
"=. c #B84D46",
"-. c #A9514B",
";. c #B7534A",
":. c #AA4F54",
">. c #A75657",
",. c #B65857",
"<. c #885667",
"1. c #965A65",
"2. c #955E74",
"3. c #865770",
"4. c #A45A63",
"5. c #976365",
"6. c #916674",
"7. c #BC7C7A",
"8. c #A0646E",
"9. c #C2554A",
"0. c #DB6C5B",
"q. c #D26D5E",
"w. c #E46A5C",
"e. c #EA6B5F",
"r. c #E6665C",
"t. c #E3715E",
"y. c #D86B68",
"u. c #CC756C",
"i. c #DD7162",
"p. c #D4746D",
"a. c #DC756B",
"s. c #DD7A6E",
"d. c #C97A77",
"f. c #D67875",
"g. c #C56F66",
"h. c #EB6D65",
"j. c #E76C66",
"k. c #E37463",
"l. c #EB7364",
"z. c #E4736B",
"x. c #EA736B",
"c. c #E7796B",
"v. c #F27469",
"b. c #E47472",
"n. c #E57C74",
"m. c #F1736B",
"M. c #A1833D",
"N. c #AB9645",
"B. c #B48E57",
"V. c #BC987A",
"C. c #B6827D",
"Z. c #BFA17D",
"A. c #C38E45",
"S. c #C7934F",
"D. c #C5847B",
"F. c #C98E7A",
"G. c #9A6A84",
"H. c #C77C80",
"J. c #B89A8A",
"K. c #B49B95",
"L. c #BEA48D",
"P. c #BEA193",
"I. c #B99DA4",
"U. c #B7A3A6",
"Y. c #BBAAB6",
"T. c #C59B87",
"R. c #D49A86",
"E. c #CC8D89",
"W. c #C6A48C",
"Q. c #CDA98C",
"!. c #C7A688",
"~. c #D2A88A",
"^. c #C4A394",
"/. c #C8A795",
"(. c #D5AA95",
"). c #D1B499",
"_. c #DA9DA8",
"`. c #C8A8A7",
"'. c #D6A9A6",
"]. c #C9A9BA",
"[. c #D8A9B6",
"{. c #D9B5BC",
"}. c #E9ABB7",
"|. c #F4B5B3",
" X c #E49F94",
".X c #EBC9AB",
"XX c #F7C8AE",
"oX c #EDCBB5",
"OX c #F3CDBC",
"+X c #F6CCB6",
"@X c #F4D3B4",
"#X c #F5D4BC",
"$X c #FBD4BA",
"%X c #FBD9BD",
"&X c #F2D1B2",
"*X c #B8B4C8",
"=X c #BBB7D7",
"-X c #B2B0CB",
";X c #BBBCE1",
":X c #C6AAC5",
">X c #DAACC3",
",X c #C6B6C9",
"<X c #D8B4C5",
"1X c #C6B6D5",
"2X c #D7B6D1",
"3X c #EAB4C2",
"4X c #C5BEE0",
"5X c #B5C1E7",
"6X c #D7C1D1",
"7X c #CAC7DA",
"8X c #F6CDC2",
"9X c #FAD2C3",
"0X c #FED6CD",
"qX c #F6D5C6",
"wX c #FFDCD3",
"eX c #FBD8D6",
"rX c #EFC9CD",
"tX c #FFE4C6",
"yX c #FEE2D6",
"uX c #EAD9E7",
"iX c #F5DAE9",
"pX c #EBEDEC",
"aX c #EFEAE6",
"sX c #F9E8E8",
"dX c #FCF3ED",
"fX c #F6FDEF",
"gX c #F7F7EB",
"hX c #E9E8F6",
"jX c #FAECF3",
"kX c #F7EEFB",
"lX c #EEF8F7",
"zX c #F4F4F4",
"xX c #FDF4F4",
"cX c #F5FCF5",
"vX c #FBFCF6",
"bX c #F4F6FA",
"nX c #FCF5FB",
"mX c #F5FBFC",
"MX c #FEFEFE",
"NX c #EEF3ED",
/* pixels */
"MXMXMXMXMXMXMXMXMXMXMXMXMXMXMXMXMXmXMXnXMXmXMXMXMXMXMXMXMXMXMXMXnXnXnXnXmXnXnXMXMXmXMXMXMXMXMXMXMXMXMXMXMXMXMXMXMXMXMXMXMXMXMXMX",
"MXMXMXMXMXMXMXMXMXMXMXMXMXMXMXMXMXMXMXMXMXMXMXMXMXvXMXMXMXvXMXmXmXmXMXmXMXMXnXMXMXMXMXMXMXMXMXMXMXMXMXMXMXMXMXMXMXMXMXMXMXMXMXMX",
"MXMXMXMXMXMXMXMXMXMXMXMXMXMXMXMXmXMXmXMXMXMXMXMXMXMXMXMXMXMXMXMXMXMXMXMXMXMXMXMXMXMXMXMXMXMXMXMXMXMXMXMXMXMXMXMXMXMXMXMXMXMXMXMX",
"MXMXMXMXMXMXMXMXMXMXMXMXMXMXMXMXMXnXMXMXMXMXmXMXMXMXvXMXMXvXMXvXvXvXmXvXvXmXvXMXMXmXMXMXMXMXMXMXMXMXMXMXMXMXMXMXMXMXMXMXMXMXMXMX",
"MXMXMXMXMXMXMXMXMXMXMXMXMXMXMXMXMXMXMXMXMXnXMXvXvXvXvXMXvXvXvXvXcXcXcXvXmXmXmXvXMXMXMXMXMXMXMXMXMXMXMXMXMXMXMXMXMXMXMXMXMXMXMXMX",
"MXMXMXMXMXMXMXMXMXMXMXMXMXMXMXMXnXMXnXMXMXMXMXMXMXMXvXvXMXvXmXvXvXvXmXcXvXvXmXMXMXMXMXMXMXnXMXMXMXMXMXMXMXMXMXMXMXMXMXMXMXMXMXMX",
"MXMXMXMXMXMXMXMXMXMXMXMXMXMXMXMXMXMXMXMXMXMXMXMXMXMXMXMXMXMXMXMXvXMXMXvXvXMXMXMXMXMXMXMXMXMXMXMXMXMXMXMXMXMXMXMXMXMXMXMXMXMXMXMX",
"MXMXMXMXMXMXMXMXMXMXMXMXMXMXMXMXmXMXMXMXMXMXMXMXMXMXMXMXMXMXMXmXvXMXnXMXMXMXMXMXMXMXnXMXvXMXMXvXMXMXMXMXMXMXMXMXMXMXMXMXMXMXMXMX",
"MXMXMXMXMXMXMXMXMXMXMXMXMXMXMXMXmXMXMXmXMXmXMXMXMXnXMXnXnXnXMXnXnXnXMXnXMXMXhXMXnXMXMXMXMXgXvXvXMXMXMXMXMXMXMXMXMXMXMXMXMXMXMXMX",
"MXMXMXMXMXMXMXMXMXMXMXMXMXMXMXMXMXMXnXMXjXMXMXnXnXMXnXnXMXMXnXvXnXnXMXnXMXbXMXNXMXmXMXzXMXvXMXvXMXMXMXMXMXMXMXMXMXMXMXMXMXMXMXMX",
"MXMXMXMXMXMXMXMXMXMXMXMXMXMXMXMXmXnXzXmXmXMXMXvXMXMXMXMXMXMXMXMXMXmXMXnXMXmXbXmXmXMXvXMXMXMXNXvXMXMXMXMXMXMXMXMXMXMXMXMXMXMXMXMX",
"MXMXMXMXMXMXMXMXMXMXMXMXMXMXMXMXMXMXMXMXnXbXMXMXvXvXvXvXvXvXvXcXMXvXMXvXvXmXmXMXmXmXMXmXzXvXvXMXMXMXMXMXMXMXMXMXMXMXMXMXMXMXMXMX",
"MXMXMXMXMXMXMXMXMXMXMXMXMXMXMXMXmXmXmXpXMXMXvXvXd 3 y y y y y u g u t t y < vXxXMXmXvXMXMXMXMXNXMXMXMXMXMXMXMXMXMXMXMXMXMXMXMXMX",
"MXMXMXMXMXMXMXMXMXMXMXMXMXMXMXMXMXMXMXMXvXxXxXjXq i i i 7 r 7 7 7 7 5 7 w w jXjXxXxXMXMXmXzXmXMXMXMXMXMXMXMXMXMXMXMXMXMXMXMXMXMX",
"MXMXMXMXMXMXMXMXMXMXMXMXMXMXMXMXnXmXMXsXf 0 w e H.7.d.d.u.u.p.i.y.f.f.E.E.7.a r 0 V aXxXmXMXmXMXMXMXMXMXMXMXMXMXMXMXMXMXMXMXMXMX",
"MXMXMXMXMXMXMXMXMXMXMXMXMXMXMXMXMXMXxXxX9 h a r H.d.f.a.z.z.x.l.x.y.b.p.u.d.r r e q nXMXnXMXmXmXMXMXMXMXMXMXMXMXMXMXMXMXMXMXMXMX",
"MXMXMXMXMXMXMXMXMXMXMXMXMXMXMXMXmXMX0 e %.O.F.h.z.c.0.t.t.F.w.t.w.t.l.v.l.k.a.a.:.1.a d mXmXMXvXMXMXMXMXMXMXMXMXMXMXMXMXMXMXMXMX",
"MXMXMXMXMXMXMXMXMXMXMXMXMXMXMXMXmXMXp e %.>.y.j.j.l.0.l.r.e.e.e.l.e.e.r.t.i.k.s.,.+.q d bXmXMXgXMXMXMXMXMXMXMXMXMXMXMXMXMXMXMXMX",
"MXMXMXMXMXMXMXMXMXMXMXMXMXMXMXmXmXvXp w >.,.y.m.h.r.h.v.e.v.v.v.v.v.h.l.l.k.i.i.*.%.h d MXMXvXMXMXMXMXMXMXMXMXMXMXMXMXMXMXMXMXMX",
"MXMXMXMXMXMXMXMXMXMXMXMXMXMXMXMXbXMXp j d.p.j.x.v.e.e.h.e.e.e.r.i.w.r.h.l.t.k.i.a.d.h p nXMXpXnXMXMXMXMXMXMXMXMXMXMXMXMXMXMXMXMX",
"MXMXMXMXMXMXMXMXMXMXMXMXMXMXMXMXMXnX6 5 d.n.j.h.h.e.h.j.j.z.b.j.s.x.x.j.k.i.t.k.a.d.r p nXnXMXMXMXMXMXMXMXMXMXMXMXMXMXMXMXMXMXMX",
"MXMXMXMXMXMXMXMXMXMXMXMXMXMXMXMXMXjXh r f.n.j.j.w.l.x.i.f.g.p.f.p.f.b.x.c.k.t.w.c.u.5 Z jXnXnXNXMXMXMXMXMXMXMXMXMXMXMXMXMXMXMXMX",
"MXMXMXMXMXMXMXMXMXMXMXMXMXMXMXMXB f 5 k g.k.x.l.t.c.F.,.R.D.7.D.d.d.p.y.a.z.l.t.j.a.k 5 p d kXMXMXMXMXMXMXMXMXMXMXMXMXMXMXMXMXMX",
"MXMXMXMXMXMXMXMXMXMXMXMXMXMXMXMXp 9 5.>.*.9.0.t.i.c.p.D.0XwX0X0XeX|. Xf.p.k.k.t...;.-.1.h 2 MXmXMXMXMXMXMXMXMXMXMXMXMXMXMXMXMXMX",
"MXMXMXMXMXMXMXMXMXMXzXMXMXvXMXvX2 a #.>.;...k.t.n.u.d.C.0XwXwXqXeXeX7.E.p.b.z.y...9.,.1.q d MXmXMXMXMXMXMXMXMXMXMXMXMXMXMXMXMXMX",
"MXMXMXMXMXMXMXMXMXMXMXMXzXMXMXMX. ; #.-.-.=.;.=.X.>.}.'.iXeX<.6.eXiX}._.>.*.=.9.=.=.*.o.#   lXMXMXMXMXMXMXMXMXMXMXMXMXMXMXMXMXMX",
"MXMXMXMXMXMXMXMXMXNXMXMXMXMXMXzXX $ 5.O.-.;.*.9.,.%.|.{.rXiX<.1.sXuX{.[.4.>.:.*.=.,.-.5.# - mXvXMXMXMXMXMXMXMXMXMXMXMXMXMXMXMXMX",
"MXMXMXMXMXMXMXMXMXMXvXzXvXMXMXMX. # 5.&.>.,.*.:.+.+.{.[.2.G.@.<.3.6.].>X2.4.>.:.-.-.&.5.#   cXmXMXMXMXMXMXMXMXMXMXMXMXMXMXMXMXMX",
"MXMXMXmXMXMXMXMXzXMXMXvXMXvXnXvX. $ Q $.%.O.>.%.2.G.:X2XG./ 2.2./ 3.:X:XG.@.+.1.>.>.%.#.#   vXMXMXMXMXMXMXMXMXMXMXMXMXMXMXMXMXMX",
"MXMXMXMXMXMXMXMXMXnXnXcXvXMXNXMX. . i h $.4.}.3X>X:X=X;X:X2X].>X6XY.2X1X:X2X>X}.4.+.k w X @ aXxXMXMXMXMXMXMXMXMXMXMXMXMXMXMXMXMX",
"MXMXmXMXMXMXMXMXMXMXMXMXMXpXF 1 X % q a #.%.[.[.:X4X;X;X=X=X-X2X,X,X1X1X1X,X:X[.#.$.r h # . G t MXMXMXMXMXMXMXMXMXMXMXMXMXMXMXMX",
"MXMXMXMXMXMXMXMXMXzXMXxXMXvX1 4 . # t a #.8.}.,X1X;X-X;X;X-X4X-X:X,X1X=X1X,X:X>X1.5.w i # # 0 0 MXMXMXMXMXMXMXMXMXMXMXMXMXMXMXMX",
"MXMXMXMXMXMXMXMXMXMXMXMXMXMX  . ~.J.Q U e e V 2 ,X=XhXhXhXhXhXkXsXnXuXhX=X1XN V q i T n T.T.. X MXMXMXMXMXMXMXMXMXMXMXMXMXMXMXMX",
"MXMXMXMXMXMXMXMXMXMXnXnXMXMX  O F.^.! R p 9 B B ,X,XiXkXpXzXhXhXsXuXhXkX*X-XC 9 q w m m (./.#   MXMXMXMXMXMXMXMXMXMXMXMXMXMXMXMX",
"MXMXMXMXMXMXMXMXzXMXMXMXMXMX  % !.J.f f R / W E E / Q P g < 2 B d B ^ E E / C / W Y 8 7 T.J.. & MXMXMXMXMXMXMXMXMXMXMXMXMXMXMXMX",
"MXMXMXMXMXMXMXMXMXMXzXvXMXjX@   L.U.f p W G W W P ! I I w , s p p d E E E E / Q Y Y 8 8 ^.J.. o MXMXMXMXMXMXMXMXMXMXMXMXMXMXMXMX",
"MXMXMXMXMXMXMXMXzXvXMXMXMXMXzXxX# # 2 g ^.P.' M `.^.w c ^.)./.T.`.U.f d I.I.K R !.L.1 g # # MXnXMXMXMXMXMXMXMXMXMXMXMXMXMXMXMXMX",
"MXMXMXMXMXMXMXMXMXMXvXMXMXnXMXzX. O g w Q.Q.M m L.P.6 i W.T.(.R.^.'.t d U.K.I n Z.J.v 3 . O MXMXMXMXMXMXMXMXMXMXMXMXMXMXMXMXMXMX",
"MXMXMXMXMXMXMXMXMXMXMXMXMXvXMXMXMXxX. $ !.V.).L.yXtX$ $ qX%XXXXX+X8X$ # iXdX^.Q.!.).# o nXmXvXvXMXMXMXMXMXMXMXMXMXMXMXMXMXMXMXMX",
"MXMXMXMXMXMXMXMXMXMXMXmXvXMXnXMXcXvX# # Q.~.Z.!.yXyX: $ qXXXXX$X+XoX; # yXyXW.T.^.J.. o mXmXMXMXMXMXMXMXMXMXMXMXMXMXMXMXMXMXMXMX",
"MXMXMXMXMXMXMXMXMXMXMXMXMXMXMXMXfXfXxXxX# $ W.W.OX9XOX@X&X&X$XOX#XoX#XoX9X$X(.^.$ # zXcXvXvXMXMXMXMXMXMXMXMXMXMXMXMXMXMXMXMXMXMX",
"MXMXMXMXMXMXMXMXMXMXMXMXMXMXMXMXfXdXvXnX@ # ^.Q.+XXX$X$X&XtX@X$X.XtX.X@X+XXXT.'.$ . MXfXfXfXpXMXMXMXMXMXMXMXMXMXMXMXMXMXMXMXMXMX",
"MXMXMXMXMXMXMXMXMXMXMXMXMXMXMXMXfXvXMXbXo . I n T.(..X.X@X%XV.!.#X.X@X$X~. Xm m # . vXmXfXvXvXMXMXMXMXMXMXMXMXMXMXMXMXMXMXMXMXMX",
"MXMXMXMXMXMXMXMXMXMXMXMXMXMXMXMXvXMXMXlX@ X m | ~.(.$X%X@X&X~.~.#X@X#X$XR.Z. .m # . mXMXvXfXvXvXMXMXMXMXMXMXMXMXMXMXMXMXMXMXMXMX",
"MXMXMXMXMXMXMXMXMXMXMXMXMXMXMXMXmXMX  - 1 8 B.B. .n i i J.).!.!.L./.6 e o. .S.B.v 1 O o xXMXvXvXMXMXMXMXMXMXMXMXMXMXMXMXMXMXMXMX",
"MXMXMXMXMXMXMXMXMXMXMXMXMXMXMXMXxXzX  X 1 8 B.S.{ o.a h P.P.W.W.).L.h h  .n S.N., c O @ MXxXjXvXMXMXMXMXMXMXMXMXMXMXMXMXMXMXMXMX",
"MXMXMXMXMXMXMXMXMXMXMXMXMXMXMXnXP Q 3 x u z M.S.X.| '.`.p > H , < s I._.o. .S.N.z l 4 f G H nXnXMXMXMXMXMXMXMXMXMXMXMXMXMXMXMXMX",
"MXMXMXMXMXMXMXMXMXMXMXMXMXMXmXvXL I v y 8 z N.S.{ } (.[.f p 3 3 t g [.}.} { A.M.l x S B P R jXnXMXMXMXMXMXMXMXMXMXMXMXMXMXMXMXMX",
"MXMXMXMXMXMXMXMXMXMXxXMXxXxXP H #X9X^./.g u '  .} ..[ &.[.Y.F N :X:X+.=.X.} &.M v v /.W.+X9XZ R vXMXMXMXMXMXMXMXMXMXMXMXMXMXMXMX",
"MXMXMXMXMXMXmXMXMXvXMXxXxXxXH R OX$X/.J.c v M o.} *.*.o.`.Y.N K -X].%.] =.} m T y , L.L.oX8XU L mXMXMXMXMXMXMXMXMXMXMXMXMXMXMXMX",
"MXMXMXMXmXMXMXMXMXmXMXvXxXvXG H #XqX8XqX# X . $ A ] O.+.{.,X2 N 1X].+.O.]  .$ X # # qXqX8XqXb L vXMXMXMXMXMXMXMXMXMXMXMXMXMXMXMX",
"MXMXMXMXMXMXMXmXmXzXMXvXMXxXE G oXoXrX0X$   X # U k +.@.`.Y.F S ].].@.%.j j #   . # rX0X8XoX#.c MXMXMXMXMXMXMXMXMXMXMXMXMXMXMXMX",
"MXMXMXMXMXMXmXMXmXMXmXzXvXvXjXxXb n U j #   ~ ) = ; : : # & o o & = $ $ $ # E ` o = Z U j b sXfXMXMXMXMXMXMXMXMXMXMXMXMXMXMXMXMX",
"vXMXMXMXMXMXMXMXmXMXMXMXvXjXMXxXb U U P O o ) )   O . . o o + + * o   X X   ) E o O P ! I W dXgXMXMXMXMXMXMXMXMXMXMXMXMXMXMXMXMX",
"MXvXMXMXMXMXMXmXmXMXmXMXMXbXMXxXdXsXxXMX@ + S 4 N x J ) ( ( S N D ( ( ) 4 3 F B o = nXvXxXdXnXMXMXMXMXMXMXMXMXMXMXMXMXMXMXMXMXMX",
"MXMXMXMXMXMXMXMXmXMXMXmXnXMXvXMXMXvXMXnXo o 4 V f f ) ) ( ( S S _ _ ) K c s f f .   cXzXvXMXnXMXMXMXMXMXMXMXMXMXMXMXMXMXMXMXMXMX",
"MXMXMXMXMXMXMXmXmXMXmXMXMXMXMXMXmXmXMXMXO $ ! Q <.! $ . + * o * * * o . Q @.@.Q $   cXfXcXmXMXmXMXMXMXMXMXMXMXMXMXMXMXMXMXMXMXMX",
"vXMXMXMXMXMXMXMXmXMXMXmXmXMXmXMXmXmXmXvXO : Q 1.@.@.; . O o & & & * o # / @.@./ # = lXvXMXxXvXMXMXMXMXMXMXMXMXMXMXMXMXMXMXMXMXMX",
"MXMXMXMXMXMXMXMXMXmXMXMXmXMXMXMXmXmXMXMXxXxX# # $ $ xXxXMXMXnXnXnXnXvXMX# # $ $ nXpXMXvXvXMXMXvXMXMXMXMXMXMXMXMXMXMXMXMXMXMXMXMX",
"MXvXMXMXMXMXMXMXMXMXmXMXMXMXMXMXmXMXMXvXMXxX  X X   MXzXMXbXvXzXmXMXMXxX      o MXMXbXMXvXvXvXvXMXMXMXMXMXMXMXMXMXMXMXMXMXMXMXMX",
"MXMXMXMXMXMXMXMXMXMXvXMXMXMXMXMXMXmXzXMXxXvXvXvXvXvXMXMXvXMXMXmXMXvXvXMXvXMXMXmXlXlXmXMXvXgXcXvXMXMXMXMXMXMXMXMXMXMXMXMXMXMXMXMX",
"MXvXMXMXMXMXMXMXMXMXMXMXMXMXMXMXbXMXvXxXvXMXxXMXvXMXvXnXzXvXpXlXvXnXxXmXxXMXMXMXmXmXlXbXnXvXcXcXMXMXMXMXMXMXMXMXMXMXMXMXMXMXMXMX",
"vXMXMXMXnXMXMXMXMXMXMXMXMXMXMXMXmXnXMXMXMXxXMXzXMXbXMXMXMXMXcXlXbXMXMXnXMXMXMXvXMXMXMXnXnXmXMXmXMXMXMXMXMXMXMXMXMXMXMXMXMXMXMXMX",
"MXMXMXvXMXMXMXMXMXMXMXMXMXMXmXMXMXmXMXmXvXMXmXmXmXMXmXbXMXvXNXmXmXmXmXMXMXvXMXvXMXxXnXnXnXMXmXMXMXMXMXMXMXMXMXMXMXMXMXMXMXMXMXMX"
};
