/* XPM */
static char *result[] = {
/* columns rows colors chars-per-pixel */
"64 64 80 1 ",
"  c #1F6363",
". c #1F6463",
"X c #206463",
"o c #206563",
"O c #206663",
"+ c #1F6263",
"@ c #1E6064",
"# c #1D5D64",
"$ c #1C5B64",
"% c #1E5F64",
"& c #1E6163",
"* c #1C5A64",
"= c #195365",
"- c #174E66",
"; c #195266",
": c #1B5964",
"> c #1D5F64",
", c #195465",
"< c #144867",
"1 c #113F69",
"2 c #144767",
"3 c #174D66",
"4 c #113E69",
"5 c #0D336A",
"6 c #0F3A69",
"7 c #0C326B",
"8 c #0C336A",
"9 c #124168",
"0 c #103C69",
"q c #113D69",
"w c #195366",
"e c #164D66",
"r c #1B5A64",
"t c #1E6063",
"y c #154A67",
"u c #154967",
"i c #164B67",
"p c #0E386A",
"a c #0E366A",
"s c #113F68",
"d c #174F66",
"f c #114068",
"g c #0A2B6C",
"h c #08286C",
"j c #08276C",
"k c #092B6C",
"l c #0C326A",
"z c #1C5C64",
"x c #092A6C",
"c c #07246D",
"v c #06226D",
"b c #07236D",
"n c #154867",
"m c #103D69",
"M c #0D346A",
"N c #134368",
"B c #0E376A",
"V c #134468",
"C c #1A5665",
"Z c #134568",
"A c #0A2C6B",
"S c #07256D",
"D c #06216D",
"F c #06236D",
"G c #1A5565",
"H c #07266C",
"J c #0A2D6B",
"K c #195565",
"L c #1D5E64",
"P c #0F3969",
"I c #144568",
"U c #0C316B",
"Y c #124268",
"T c #185266",
"R c #1B5965",
"E c #144667",
"W c #216762",
"Q c #206762",
"! c #206662",
"~ c white",
/* pixels */
"      .XoOOoX.                                                  ",
"                                                                ",
"    . +@#$$#%+                                                  ",
"   .o.&*=--;:@ ..                                               ",
"  .oOo>,<112;# X.                                               ",
"   .o+$345543$ oX                                               ",
". +&>$=267843$ oX                                               ",
"X @*,32906q2w# o.                              ..XooooX..       ",
"o #=<46092e=*@ ..                              .XooooooX.       ",
"O $-15762=$>&+                                                  ",
"O $-158qe$+oX                                 +@#$*rr*$#t+      ",
"o #;2442=>oOo.                             .. @r=3yuui-,*t ..   ",
"X %:;33w*&XoX                              .o #=2qpaa6su,# X.   ",
". +@#$$#@+ .                               Xo $df8ghjkls-$ oX   ",
"                                           Xo zdf8xcvbk6i* oo   ",
"   .Xooo.              ..XX..              .o #,nmMkcvjaur oo   ",
"   ..XX..              .oooo.              .. t$,eNBkchaur oo   ",
"                                              +&%$;NMxgpy* oo   ",
"                    . +t#z$#@+                 Xo+$em88q3$ oX   ",
"                   XoX&$,dd=r@ ..             .oOo%,nff2=# X.   ",
"                  .oOo%,nff2=# X.              XoX&$,dd=r@ ..   ",
"                   Xo+$em88q3$ oX               . +t#z$#@+      ",
"                . +&@$;VMxgpy* oo                               ",
"               XoX&#C-Zpgchau: oo                  .oooo.       ",
"              .oOo@CifaASvjaur oo                  ..XX..       ",
"               Xo+$-f7xcDbk6i* oo                               ",
"            . +&%$;ZaxFvcxlfd$ oX                               ",
"           XoX&zG3VpAcvHJa1yKL X.          ..XX..               ",
"          .oOo%Gu4MgSDcJPI-C$t ..          .oooo.               ",
"           Xo+$df8xcvbxaIw$%&+                                  ",
"          +&>$,n0Ukhhkl1-$+oX           . +@#$$#%+              ",
"       .. @*=e2Yq6pBB6fyC%oOo.         XoX&*w33TR% ..           ",
"       .o #w2q6mY2yyyidK$&XoX         .oOo>=244ET# o.           ",
"       Xo $348762=r$$*$Lt+ .           Xo+$eq8543$ oX           ",
"       Xo $3458qe$+o.                 +&>$=267843$ oX           ",
"       .o #TE442=>oWQooX.          .. @*=e2906q2w# o.           ",
"       .. %RT33w*&oOooX..          .o #w2q6092e=*@ ..           ",
"          +%#$$#@+ ..              Xo $348762=$>&+              ",
"                                   Xo $3458qe$+oX               ",
"           .oooo.                  .o #TE442=>oOo.              ",
"           ..XX..                  .. %RT33w*&XoX               ",
"                                      +%#$$#@+ .                ",
"                                                                ",
"                   ..XX..              .oooo.      ..XX..       ",
"                   .oooo.              ..XX..      .oooo.       ",
"                                                                ",
"                . +t#z$#@+                      . +t#z$#@+      ",
"               XoX&$,dd=r@ ..                  XoX&$,dd=r@ ..   ",
"              .oOo%,nff2=# X.                 .oOo%,nff2=# X.   ",
"               Xo+$em88q3$ oX                  Xo+$em88q3$ oX   ",
"              +&%$;NMxgpy* oo               . +&%$;NMxgpy* oo   ",
"           .. t$,eNBkchaur oo              XoX&zG3NBkchaur oo   ",
"           .o #,nmMkcvjaur oo             .oOo%Gu4Mkcvjaur oo   ",
"           Xo zdf8xcvbk6i* oo              Xo+$df8xcvbk6i* oo   ",
"           Xo $df8ghjkls-$ oX             +&>$,n0Ukhhkls-$ oX   ",
"           .o #=2qpaa6su,# X.          .. @*=e2Yq6pBB6su,# X.   ",
"           .. @r=3yuui-,*t ..          .o #w2q6mY2yyyi-,*t ..   ",
"              +@#$*rr*$#t+             Xo $348762=r$$*$#t+      ",
"                                       Xo $345543$+o.           ",
"               .XooooooX.              .X #;2112,>oQ!ooX.       ",
"               ..XooooX..              .. @:;--=*&oOooX..       ",
"                                          +%#$$#@+ ..           ",
"                                                                ",
"                                          .XoOOoX.              "
};
