/* XPM */
static char *result[] = {
/* columns rows colors chars-per-pixel */
"64 64 251 2 ",
"   c #15C9A8",
".  c #15CAA8",
"X  c #15C8A6",
"o  c #15C7A7",
"O  c #14C5A8",
"+  c #14C1A6",
"@  c #14C3A7",
"#  c #12BAA8",
"$  c #11B1A8",
"%  c #10B0A8",
"&  c #10B1A8",
"*  c #10B1A9",
"=  c #13BDA7",
"-  c #0FACA8",
";  c #0DA0A9",
":  c #0C9CAA",
">  c #0C9DA9",
",  c #0C9EA9",
"<  c #0DA2A9",
"1  c #0B97AA",
"2  c #0A95AB",
"3  c #0B96AB",
"4  c #0B95A9",
"5  c #0B94A7",
"6  c #0C92A5",
"7  c #0C92A4",
"8  c #0C93A5",
"9  c #0B95AA",
"0  c #0B96AA",
"q  c #0C9BAA",
"w  c #0A96AB",
"e  c #0B94A8",
"r  c #0C90A1",
"t  c #0D8D9B",
"y  c #0D8C9A",
"u  c #0D8D9C",
"i  c #0C91A2",
"p  c #0B95A8",
"a  c #0B96A9",
"s  c #0C93A4",
"d  c #0D8E9C",
"f  c #0F8994",
"g  c #0F8892",
"h  c #0F8893",
"j  c #0F8993",
"k  c #0E8A95",
"l  c #0D8F9D",
"z  c #0C94A5",
"x  c #0A95AA",
"c  c #0B95AB",
"v  c #0C95A6",
"b  c #0C92A2",
"n  c #0E8B97",
"m  c #0F8791",
"M  c #0E8C98",
"N  c #0D8F9E",
"B  c #0C92A3",
"V  c #0C95A7",
"C  c #0E8D9A",
"Z  c #0E8A96",
"A  c #0D8E9B",
"S  c #0C93A3",
"D  c #0B97AB",
"F  c #0B96A8",
"G  c #0D91A0",
"H  c #0E8B96",
"J  c #0F8891",
"K  c #0C92A1",
"L  c #0B98AB",
"P  c #0F8A95",
"I  c #0E8E9B",
"U  c #0B97A9",
"Y  c #0D91A1",
"T  c #0E8D99",
"R  c #0B99AA",
"E  c #0C9DAA",
"W  c #0C9EAA",
"Q  c #0C9FAA",
"!  c #0FABAA",
"~  c #10B2AA",
"^  c #10B3AA",
"/  c #0EA6A8",
"(  c #12B6A7",
")  c #14BFA6",
"_  c #14C1A5",
"`  c #0EA4A8",
"'  c #12A8A1",
"]  c #16AB99",
"[  c #18AD94",
"{  c #19AD93",
"}  c #0FACAA",
"|  c #12B3A5",
" . c #16A797",
".. c #1A9284",
"X. c #1D8579",
"o. c #1D8377",
"O. c #1D8578",
"+. c #0DA1AA",
"@. c #10B6AA",
"#. c #14BDA3",
"$. c #18A28E",
"%. c #1C7772",
"&. c #1E5E62",
"*. c #1E5B60",
"=. c #1D5F62",
"-. c #1D5F63",
";. c #1D5C60",
":. c #1B7873",
">. c #18A38E",
",. c #14BDA4",
"<. c #0DA2AA",
"1. c #11B9AB",
"2. c #15BEA3",
"3. c #179888",
"4. c #195D65",
"5. c #1A3C52",
"6. c #193951",
"7. c #184056",
"8. c #184157",
"9. c #183C54",
"0. c #17626A",
"q. c #169A8A",
"w. c #15BFA3",
"e. c #11B9AA",
"r. c #14BCA2",
"t. c #158D83",
"y. c #15485C",
"u. c #142047",
"i. c #131F48",
"p. c #11284F",
"a. c #112A50",
"s. c #112950",
"d. c #11244D",
"f. c #125065",
"g. c #149188",
"h. c #14BCA3",
"j. c #14BBA2",
"k. c #158881",
"l. c #143D58",
"z. c #121341",
"x. c #101243",
"c. c #0E1D4B",
"v. c #0D1F4D",
"b. c #0E1F4D",
"n. c #0E1E4C",
"m. c #0D194A",
"M. c #104862",
"N. c #138D86",
"B. c #0D1949",
"V. c #0E1E4D",
"C. c #104762",
"Z. c #158882",
"A. c #143F58",
"S. c #121542",
"D. c #101443",
"F. c #0F1E4B",
"G. c #0E204D",
"H. c #0E1A4A",
"J. c #104962",
"K. c #138D87",
"L. c #101444",
"P. c #0E1F4C",
"I. c #0E214E",
"U. c #111342",
"Y. c #0F1C49",
"T. c #0F1F4C",
"R. c #0E1B4A",
"E. c #158982",
"W. c #131441",
"Q. c #12103F",
"!. c #111845",
"~. c #101B48",
"^. c #143F59",
"/. c #131340",
"(. c #130D3D",
"). c #111744",
"_. c #130C3C",
"`. c #131240",
"'. c #121744",
"]. c #101C49",
"[. c #0E1B4B",
"{. c #143E58",
"}. c #13123F",
"|. c #130B3B",
" X c #121643",
".X c #0F1B49",
"XX c #11BAAB",
"oX c #15BCA2",
"OX c #143A56",
"+X c #130D3C",
"@X c #130638",
"#X c #111140",
"$X c #0F1646",
"%X c #0E1949",
"&X c #0D1547",
"*X c #104560",
"=X c #138C85",
"-X c #14BDA2",
";X c #11B8AB",
":X c #14BAA2",
">X c #148983",
",X c #14425A",
"<X c #131743",
"1X c #13113F",
"2X c #121B46",
"3X c #10204B",
"4X c #0E234F",
"5X c #0E244F",
"6X c #104C64",
"7X c #138E87",
"8X c #14BBA3",
"9X c #0FAEAB",
"0X c #11B1A4",
"qX c #13938E",
"wX c #136671",
"eX c #144C60",
"rX c #14485D",
"tX c #144B60",
"yX c #134E62",
"uX c #115266",
"iX c #105468",
"pX c #105167",
"aX c #105569",
"sX c #116D78",
"dX c #129691",
"fX c #11B1A5",
"gX c #0B9AAA",
"hX c #0EA3A8",
"jX c #109F9E",
"kX c #139991",
"lX c #159589",
"zX c #159588",
"xX c #14978B",
"cX c #14988C",
"vX c #13998D",
"bX c #13998C",
"nX c #129C94",
"mX c #10A19F",
"MX c #0EA5A8",
"NX c #12B5A6",
"BX c #14BEA5",
"VX c #14BFA5",
"CX c #14C0A5",
"ZX c #0DA0AB",
"AX c #0FADAB",
"SX c #10B5AC",
"DX c #10B6AC",
"FX c #10B5AB",
"GX c #11B6AB",
"HX c #0DA0AA",
"JX c white",
/* pixels */
"  . X X X X X X X X X X X X X X X X X X X X X X X X X X X X X X X X X X X X X X X X X X X X X X X X X X X X X X X X X X X X .   ",
"o O + + + + + + + + + + + + + + + + + + + + + + + + + + + + + + + + + + + + + + + + + + + + + + + + + + + + + + + + + + + + O o ",
"@ # $ % % & & * * * * * * * * * & & % % % % % % % % % % % % % % % % % % % % % % % % % % % % & & * * * * * * * * * & & % % $ # @ ",
"= - ; : > , , , , , , , , , , , , , , , , , , , , , , , , , , , , , , , , , , , , , , , , , , , , , , , , , , , , , , > : ; - = ",
"$ < 1 2 3 4 5 6 7 7 7 7 7 7 7 8 5 9 3 0 0 0 0 0 0 0 0 0 0 0 0 0 0 0 0 0 0 0 0 0 0 0 0 0 0 3 9 5 8 7 7 7 7 7 7 7 6 5 4 3 2 1 < $ ",
"< q 1 w 3 e r t y y y y y y y u i p 3 3 0 0 0 0 0 0 0 0 0 0 0 0 0 0 0 0 0 0 0 0 0 0 0 0 3 3 p i u y y y y y y y t r e 3 w 1 q < ",
"1 1 1 1 a s d f g h j j j g g k l z a 1 1 1 1 1 1 1 1 1 1 1 1 1 1 1 1 1 1 1 1 1 1 1 1 1 1 a z l k g g j j j h g f d s a 1 1 1 1 ",
"x c a v b l n g m m m m m m m h M N B V 1 1 1 1 1 1 1 1 1 1 1 1 1 1 1 1 1 1 1 1 1 1 1 1 V B N M h m m m m m m m g n l b v a c x ",
"0 3 a b C k j g g g g g g g g g j Z A S a D 1 1 1 1 1 1 1 1 1 1 1 1 1 1 1 1 1 1 1 1 D a S A Z j g g g g g g g g g j k C b a 3 0 ",
"0 3 F G H J m g g g g g g g g g m g n K a L 1 1 1 1 1 1 1 1 1 1 1 1 1 1 1 1 1 1 1 1 L a K n g m g g g g g g g g g m J H G F 3 0 ",
"0 3 F G H m m g g g g g g g g g m J n K a L 1 1 1 1 1 1 1 1 1 1 1 1 1 1 1 1 1 1 1 1 L a K n J m g g g g g g g g g m m H G F 3 0 ",
"0 3 F G n g J g g g g g g g g g m g M b a L 1 1 1 1 1 1 1 1 1 1 1 1 1 1 1 1 1 1 1 1 L a b M g m g g g g g g g g g J g n G F 3 0 ",
"0 3 F G H m m g g g g g g g g g m J n K a L 1 1 1 1 1 1 1 1 1 1 1 1 1 1 1 1 1 1 1 1 L a K n J m g g g g g g g g g m m H G F 3 0 ",
"0 3 F G H J m g g g g g g g g g m g n K a L 1 1 1 1 1 1 1 1 1 1 1 1 1 1 1 1 1 1 1 1 L a K n g m g g g g g g g g g m J H G F 3 0 ",
"0 3 a b C P j g g g g g g g g g j k I S a D 1 1 1 1 1 1 1 1 1 1 1 1 1 1 1 1 1 1 1 1 D a S I k j g g g g g g g g g j P C b a 3 0 ",
"0 0 U v b l n g m m m m m m m h n l b V 1 1 1 1 1 1 1 1 1 1 1 1 1 1 1 1 1 1 1 1 1 1 1 1 V b l n h m m m m m m m g n l b v U 0 0 ",
"0 0 1 1 a s A f g g h h h g g P l z a 1 1 1 1 1 1 1 1 1 1 1 1 1 1 1 1 1 1 1 1 1 1 1 1 1 1 a z l P g g h h h g g f A s a 1 1 0 0 ",
"0 0 1 L L p Y A T C C C C T T d b F L D 1 1 1 1 1 1 1 0 0 0 0 0 0 0 0 0 0 1 1 1 1 1 1 1 D L F b d T T C C C C T A Y p L L 1 0 0 ",
"0 0 1 1 1 a v s S s s s s s S s V U 1 1 1 1 1 1 1 1 1 0 0 0 0 0 0 0 0 0 0 1 1 1 1 1 1 1 1 1 U V s S s s s s s S s v a 1 1 1 0 0 ",
"0 0 1 1 1 1 1 1 1 1 1 1 1 1 1 1 1 1 1 1 1 1 1 1 1 1 R : E W E E E E W E : R 1 1 1 1 1 1 1 1 1 1 1 1 1 1 1 1 1 1 1 1 1 1 1 1 0 0 ",
"0 0 1 1 1 1 1 D L L L L L L L D 1 1 1 1 1 1 1 0 9 1 Q ! ~ ^ ~ ~ ~ ~ ^ ~ ! Q 1 9 0 1 1 1 1 1 1 1 D L L L L L L L D 1 1 1 1 1 0 0 ",
"0 0 1 1 1 1 1 1 1 1 1 1 1 1 1 1 1 1 1 1 1 1 1 1 0 R / ( ) _ ) ) ) ) _ ) ( / R 0 1 1 1 1 1 1 1 1 1 1 1 1 1 1 1 1 1 1 1 1 1 1 0 0 ",
"0 0 1 1 1 1 1 1 1 1 1 1 1 1 1 1 1 1 1 1 1 1 1 R W ` ' ] [ { [ [ [ [ { [ ] ' ` W R 1 1 1 1 1 1 1 1 1 1 1 1 1 1 1 1 1 1 1 1 1 0 0 ",
"0 0 1 1 1 1 1 1 1 1 1 1 1 1 1 1 1 1 1 1 1 0 1 W } |  ...X.o.O.O.O.O.o.O... .| } W 1 0 1 1 1 1 1 1 1 1 1 1 1 1 1 1 1 1 1 1 1 0 0 ",
"0 0 1 1 1 1 1 1 1 1 1 1 1 1 1 1 1 1 1 1 1 0 0 +.@.#.$.%.&.*.=.-.-.=.;.-.:.>.,.@.+.0 0 1 1 1 1 1 1 1 1 1 1 1 1 1 1 1 1 1 1 1 0 0 ",
"0 0 1 1 1 1 1 1 1 1 1 1 1 1 1 1 1 1 1 1 1 0 0 <.1.2.3.4.5.6.7.8.8.7.9.8.0.q.w.e.<.0 0 1 1 1 1 1 1 1 1 1 1 1 1 1 1 1 1 1 1 1 0 0 ",
"0 0 1 1 1 1 1 1 1 1 1 1 1 1 1 1 1 1 1 1 1 0 0 <.1.r.t.y.u.i.p.a.a.s.d.a.f.g.h.1.<.0 0 1 1 1 1 1 1 1 1 1 1 1 1 1 1 1 1 1 1 1 0 0 ",
"0 0 1 1 1 1 1 1 1 1 1 1 1 1 1 1 1 1 1 1 1 0 0 <.1.j.k.l.z.x.c.v.b.n.m.b.M.N.r.1.<.0 0 1 1 1 1 1 1 1 1 1 1 1 1 1 1 1 1 1 1 1 0 0 ",
"0 0 1 1 1 1 1 1 1 1 1 1 1 1 1 1 1 1 1 1 1 0 0 <.1.j.k.l.z.x.c.v.v.n.B.V.C.N.r.1.<.0 0 1 1 1 1 1 1 1 1 1 1 1 1 1 1 1 1 1 1 1 0 0 ",
"0 0 1 1 1 1 1 1 1 1 1 1 1 1 1 1 1 1 1 1 1 0 0 <.1.j.Z.A.S.D.F.G.G.G.H.G.J.K.h.1.<.0 0 1 1 1 1 1 1 1 1 1 1 1 1 1 1 1 1 1 1 1 0 0 ",
"0 0 1 1 1 1 1 1 1 1 1 1 1 1 1 1 1 1 1 1 1 0 0 <.1.j.Z.A.S.L.P.I.G.G.H.G.J.K.h.1.<.0 0 1 1 1 1 1 1 1 1 1 1 1 1 1 1 1 1 1 1 1 0 0 ",
"0 0 1 1 1 1 1 1 1 1 1 1 1 1 1 1 1 1 1 1 1 0 0 <.1.j.Z.A.S.L.n.I.G.G.H.G.J.K.h.1.<.0 0 1 1 1 1 1 1 1 1 1 1 1 1 1 1 1 1 1 1 1 0 0 ",
"0 0 1 1 1 1 1 1 1 1 1 1 1 1 1 1 1 1 1 1 1 0 0 <.1.j.Z.A.S.U.Y.T.P.G.R.G.J.K.h.1.<.0 0 1 1 1 1 1 1 1 1 1 1 1 1 1 1 1 1 1 1 1 0 0 ",
"0 0 1 1 1 1 1 1 1 1 1 1 1 1 1 1 1 1 1 1 1 0 0 <.1.j.E.A.W.Q.!.~.F.G.R.G.J.K.h.1.<.0 0 1 1 1 1 1 1 1 1 1 1 1 1 1 1 1 1 1 1 1 0 0 ",
"0 0 1 1 1 1 1 1 1 1 1 1 1 1 1 1 1 1 1 1 1 0 0 <.1.j.E.^./.(.W.).Y.b.R.G.J.K.h.1.<.0 0 1 1 1 1 1 1 1 1 1 1 1 1 1 1 1 1 1 1 1 0 0 ",
"0 0 1 1 1 1 1 1 1 1 1 1 1 1 1 1 1 1 1 1 1 0 0 <.1.j.E.^./._.`.'.].b.[.G.J.K.h.1.<.0 0 1 1 1 1 1 1 1 1 1 1 1 1 1 1 1 1 1 1 1 0 0 ",
"0 0 1 1 1 1 1 1 1 1 1 1 1 1 1 1 1 1 1 1 1 0 0 <.1.j.E.^./._./.'.Y.b.R.G.J.K.h.1.<.0 0 1 1 1 1 1 1 1 1 1 1 1 1 1 1 1 1 1 1 1 0 0 ",
"0 0 1 1 1 1 1 1 1 1 1 1 1 1 1 1 1 1 1 1 1 0 0 <.1.j.E.{.}.|.}. X.Xn.H.b.M.N.r.1.<.0 0 1 1 1 1 1 1 1 1 1 1 1 1 1 1 1 1 1 1 1 0 0 ",
"0 0 1 1 1 1 1 1 1 1 1 1 1 1 1 1 1 1 1 1 1 0 0 <.XXoXk.OX+X@X_.#X$X%X&XH.*X=X-XXX<.0 0 1 1 1 1 1 1 1 1 1 1 1 1 1 1 1 1 1 1 1 0 0 ",
"0 0 1 1 1 1 1 1 1 1 1 1 1 1 1 1 1 1 1 1 1 0 0 +.;X:X>X,X<X1X<X2X3X4Xb.5X6X7X8X;X+.0 0 1 1 1 1 1 1 1 1 1 1 1 1 1 1 1 1 1 1 1 0 0 ",
"0 0 1 1 1 1 1 1 1 1 1 1 1 1 1 1 1 1 1 1 1 0 1 W 9X0XqXwXeXrXtXyXuXiXpXaXsXdXfX9XW 1 0 1 1 1 1 1 1 1 1 1 1 1 1 1 1 1 1 1 1 1 0 0 ",
"0 0 1 1 1 1 1 1 1 1 1 1 1 1 1 1 1 1 1 1 1 1 1 gXQ hXjXkXlXzXlXxXcXvXbXvXnXmXhXQ gX1 1 1 1 1 1 1 1 1 1 1 1 1 1 1 1 1 1 1 1 1 0 0 ",
"0 0 1 1 1 1 1 1 1 1 1 1 1 1 1 1 1 1 1 1 1 1 1 1 0 R MXNXBXVXBXBXBXBXCXBXNXMXR 0 1 1 1 1 1 1 1 1 1 1 1 1 1 1 1 1 1 1 1 1 1 1 0 0 ",
"0 0 1 1 1 1 1 D L L L L L L L D 1 1 1 1 1 1 1 0 9 1 ZXAXSXDXSXFXFXFXGXFXAXHX1 9 0 1 1 1 1 1 1 1 D L L L L L L L D 1 1 1 1 1 0 0 ",
"0 0 1 1 1 1 1 1 1 1 1 1 1 1 1 1 1 1 1 1 1 1 1 1 1 1 R : W W W W W W W W : R 1 1 1 1 1 1 1 1 1 1 1 1 1 1 1 1 1 1 1 1 1 1 1 1 0 0 ",
"0 0 1 1 1 a v s S s s s s s S s V U 1 1 1 1 1 1 1 1 1 0 0 0 0 0 0 0 0 0 0 1 1 1 1 1 1 1 1 1 U V s S s s s s s S s v a 1 1 1 0 0 ",
"0 0 1 L L p Y A T C C C C T T d b F L D 1 1 1 1 1 1 1 0 0 0 0 0 0 0 0 0 0 1 1 1 1 1 1 1 D L F b d T T C C C C T A Y p L L 1 0 0 ",
"0 0 1 1 a s A f g g h h h g g P l z a 1 1 1 1 1 1 1 1 1 1 1 1 1 1 1 1 1 1 1 1 1 1 1 1 1 1 a z l P g g h h h g g f A s a 1 1 0 0 ",
"0 0 U v b l n g m m m m m m m h n l b V 1 1 1 1 1 1 1 1 1 1 1 1 1 1 1 1 1 1 1 1 1 1 1 1 V b l n h m m m m m m m g n l b v U 0 0 ",
"0 3 a b C P j g g g g g g g g g j k I S a D 1 1 1 1 1 1 1 1 1 1 1 1 1 1 1 1 1 1 1 1 D a S I k j g g g g g g g g g j P C b a 3 0 ",
"0 3 F G H J m g g g g g g g g g m g n K a L 1 1 1 1 1 1 1 1 1 1 1 1 1 1 1 1 1 1 1 1 L a K n g m g g g g g g g g g m J H G F 3 0 ",
"0 3 F G H m m g g g g g g g g g m J n K a L 1 1 1 1 1 1 1 1 1 1 1 1 1 1 1 1 1 1 1 1 L a K n J m g g g g g g g g g m m H G F 3 0 ",
"0 3 F G n g J g g g g g g g g g m g M b a L 1 1 1 1 1 1 1 1 1 1 1 1 1 1 1 1 1 1 1 1 L a b M g m g g g g g g g g g J g n G F 3 0 ",
"0 3 F G H m m g g g g g g g g g m J n K a L 1 1 1 1 1 1 1 1 1 1 1 1 1 1 1 1 1 1 1 1 L a K n J m g g g g g g g g g m m H G F 3 0 ",
"0 3 F G H J m g g g g g g g g g m g n K a L 1 1 1 1 1 1 1 1 1 1 1 1 1 1 1 1 1 1 1 1 L a K n g m g g g g g g g g g m J H G F 3 0 ",
"0 3 a b C k j g g g g g g g g g j Z A S a D 1 1 1 1 1 1 1 1 1 1 1 1 1 1 1 1 1 1 1 1 D a S A Z j g g g g g g g g g j k C b a 3 0 ",
"x c a v b l n g m m m m m m m h M N B V 1 1 1 1 1 1 1 1 1 1 1 1 1 1 1 1 1 1 1 1 1 1 1 1 V B N M h m m m m m m m g n l b v a c x ",
"1 1 1 1 a s d f g h j j j g g k l z a 1 1 1 1 1 1 1 1 1 1 1 1 1 1 1 1 1 1 1 1 1 1 1 1 1 1 a z l k g g j j j h g f d s a 1 1 1 1 ",
"< q 1 w 3 e r t y y y y y y y u i p 3 3 0 0 0 0 0 0 0 0 0 0 0 0 0 0 0 0 0 0 0 0 0 0 0 0 3 3 p i u y y y y y y y t r e 3 w 1 q < ",
"$ < 1 2 3 4 5 6 7 7 7 7 7 7 7 8 5 9 3 0 0 0 0 0 0 0 0 0 0 0 0 0 0 0 0 0 0 0 0 0 0 0 0 0 0 3 9 5 8 7 7 7 7 7 7 7 6 5 4 3 2 1 < $ ",
"= - ; : > , , , , , , , , , , , , , , , , , , , , , , , , , , , , , , , , , , , , , , , , , , , , , , , , , , , , , , > : ; - = ",
"@ # $ % % & & * * * * * * * * * & & % % % % % % % % % % % % % % % % % % % % % % % % % % % % & & * * * * * * * * * & & % % $ # @ ",
"o O + + + + + + + + + + + + + + + + + + + + + + + + + + + + + + + + + + + + + + + + + + + + + + + + + + + + + + + + + + + + O o ",
"  . X X X X X X X X X X X X X X X X X X X X X X X X X X X X X X X X X X X X X X X X X X X X X X X X X X X X X X X X X X X X .   "
};
